<?xml version="1.0" encoding="utf-8" standalone="no"?>
<!DOCTYPE svg PUBLIC "-//W3C//DTD SVG 1.1//EN" "http://www.w3.org/Graphics/SVG/1.1/DTD/svg11.dtd">
<svg width="12000px" height="12000px" version="1.1" xmlns="http://www.w3.org/2000/svg" xmlns:xlink="http://www.w3.org/1999/xlink">
<g id="ideograms">
<path d="M6000.000,1275.000 A4725.000,4725.000 40.000 0,1 7130.900,1412.333 L7148.850,1339.513 A4800.000,4800.000 0.000 0,0 6000.000,1200.000 Z" style="stroke-width:2.0;stroke:rgb(0,0,0);stroke-linecap:round;fill:rgb(0,0,0);" />
<text x="6545.5" y="1508.0" font-size="195.0px" font-family="CMUBright-Bold" style="text-anchor:middle;fill:rgb(0,0,0);" transform="rotate(366.9,6545.5,1508.0)" >LG1</text>
<line x1='6000.0' y1='1200.0' x2='6000.0' y2='1185.0' style="stroke-width:2.0;stroke:rgb(0,0,0);stroke-linecap:round;fill:none;" />
<line x1='6177.2' y1='1203.3' x2='6177.6' y2='1193.3' style="stroke-width:2.0;stroke:rgb(0,0,0);stroke-linecap:round;fill:none;" />
<line x1='6354.1' y1='1213.1' x2='6355.2' y2='1198.1' style="stroke-width:2.0;stroke:rgb(0,0,0);stroke-linecap:round;fill:none;" />
<line x1='6530.6' y1='1229.4' x2='6531.7' y2='1219.5' style="stroke-width:2.0;stroke:rgb(0,0,0);stroke-linecap:round;fill:none;" />
<line x1='6706.3' y1='1252.3' x2='6708.5' y2='1237.4' style="stroke-width:2.0;stroke:rgb(0,0,0);stroke-linecap:round;fill:none;" />
<line x1='6881.1' y1='1281.6' x2='6882.9' y2='1271.7' style="stroke-width:2.0;stroke:rgb(0,0,0);stroke-linecap:round;fill:none;" />
<line x1='7054.7' y1='1317.3' x2='7058.0' y2='1302.7' style="stroke-width:2.0;stroke:rgb(0,0,0);stroke-linecap:round;fill:none;" />
<path d="M6000.000,1275.000 A4725.000,4725.000 40.000 0,1 7130.900,1412.333 L7148.850,1339.513 A4800.000,4800.000 0.000 0,0 6000.000,1200.000 Z" style="stroke-width:2.0;stroke:rgb(0,0,0);stroke-linecap:round;fill:none;" />
<path d="M7198.757,1429.594 A4725.000,4725.000 40.000 0,1 8264.094,1852.771 L8300.032,1786.942 A4800.000,4800.000 0.000 0,0 7217.785,1357.048 Z" style="stroke-width:2.0;stroke:rgb(0,0,0);stroke-linecap:round;fill:rgb(0,0,0);" />
<text x="7670.5" y="1794.6" font-size="195.0px" font-family="CMUBright-Bold" style="text-anchor:middle;fill:rgb(0,0,0);" transform="rotate(381.7,7670.5,1794.6)" >LG10</text>
<line x1='7217.8' y1='1357.0' x2='7221.6' y2='1342.5' style="stroke-width:2.0;stroke:rgb(0,0,0);stroke-linecap:round;fill:none;" />
<line x1='7388.3' y1='1405.2' x2='7391.2' y2='1395.6' style="stroke-width:2.0;stroke:rgb(0,0,0);stroke-linecap:round;fill:none;" />
<line x1='7557.0' y1='1459.5' x2='7561.9' y2='1445.4' style="stroke-width:2.0;stroke:rgb(0,0,0);stroke-linecap:round;fill:none;" />
<line x1='7723.5' y1='1520.1' x2='7727.1' y2='1510.8' style="stroke-width:2.0;stroke:rgb(0,0,0);stroke-linecap:round;fill:none;" />
<line x1='7887.7' y1='1586.8' x2='7893.6' y2='1573.0' style="stroke-width:2.0;stroke:rgb(0,0,0);stroke-linecap:round;fill:none;" />
<line x1='8049.4' y1='1659.5' x2='8053.6' y2='1650.4' style="stroke-width:2.0;stroke:rgb(0,0,0);stroke-linecap:round;fill:none;" />
<line x1='8208.2' y1='1738.1' x2='8215.1' y2='1724.8' style="stroke-width:2.0;stroke:rgb(0,0,0);stroke-linecap:round;fill:none;" />
<path d="M7198.757,1429.594 A4725.000,4725.000 40.000 0,1 8264.094,1852.771 L8300.032,1786.942 A4800.000,4800.000 0.000 0,0 7217.785,1357.048 Z" style="stroke-width:2.0;stroke:rgb(0,0,0);stroke-linecap:round;fill:none;" />
<path d="M8325.300,1886.777 A4725.000,4725.000 40.000 0,1 9248.656,2568.985 L9300.222,2514.525 A4800.000,4800.000 0.000 0,0 8362.209,1821.488 Z" style="stroke-width:2.0;stroke:rgb(0,0,0);stroke-linecap:round;fill:rgb(0,0,0);" />
<text x="8688.9" y="2360.6" font-size="195.0px" font-family="CMUBright-Bold" style="text-anchor:middle;fill:rgb(0,0,0);" transform="rotate(396.5,8688.9,2360.6)" >LG11</text>
<line x1='8362.2' y1='1821.5' x2='8369.6' y2='1808.4' style="stroke-width:2.0;stroke:rgb(0,0,0);stroke-linecap:round;fill:none;" />
<line x1='8514.8' y1='1911.5' x2='8520.1' y2='1903.0' style="stroke-width:2.0;stroke:rgb(0,0,0);stroke-linecap:round;fill:none;" />
<line x1='8664.0' y1='2007.2' x2='8672.4' y2='1994.7' style="stroke-width:2.0;stroke:rgb(0,0,0);stroke-linecap:round;fill:none;" />
<line x1='8809.6' y1='2108.2' x2='8815.5' y2='2100.1' style="stroke-width:2.0;stroke:rgb(0,0,0);stroke-linecap:round;fill:none;" />
<line x1='8951.4' y1='2214.6' x2='8960.6' y2='2202.7' style="stroke-width:2.0;stroke:rgb(0,0,0);stroke-linecap:round;fill:none;" />
<line x1='9089.1' y1='2326.1' x2='9095.5' y2='2318.4' style="stroke-width:2.0;stroke:rgb(0,0,0);stroke-linecap:round;fill:none;" />
<line x1='9222.6' y1='2442.6' x2='9232.7' y2='2431.5' style="stroke-width:2.0;stroke:rgb(0,0,0);stroke-linecap:round;fill:none;" />
<path d="M8325.300,1886.777 A4725.000,4725.000 40.000 0,1 9248.656,2568.985 L9300.222,2514.525 A4800.000,4800.000 0.000 0,0 8362.209,1821.488 Z" style="stroke-width:2.0;stroke:rgb(0,0,0);stroke-linecap:round;fill:none;" />
<path d="M9299.141,2617.502 A4725.000,4725.000 40.000 0,1 10061.142,3584.891 L10125.605,3546.556 A4800.000,4800.000 0.000 0,0 9351.508,2563.811 Z" style="stroke-width:2.0;stroke:rgb(0,0,0);stroke-linecap:round;fill:rgb(0,0,0);" />
<text x="9554.7" y="3200.0" font-size="195.0px" font-family="CMUBright-Bold" style="text-anchor:middle;fill:rgb(0,0,0);" transform="rotate(411.8,9554.7,3200.0)" >LG12</text>
<line x1='9351.5' y1='2563.8' x2='9362.0' y2='2553.1' style="stroke-width:2.0;stroke:rgb(0,0,0);stroke-linecap:round;fill:none;" />
<line x1='9476.1' y1='2689.9' x2='9483.3' y2='2683.0' style="stroke-width:2.0;stroke:rgb(0,0,0);stroke-linecap:round;fill:none;" />
<line x1='9595.9' y1='2820.4' x2='9607.1' y2='2810.5' style="stroke-width:2.0;stroke:rgb(0,0,0);stroke-linecap:round;fill:none;" />
<line x1='9710.8' y1='2955.3' x2='9718.5' y2='2949.0' style="stroke-width:2.0;stroke:rgb(0,0,0);stroke-linecap:round;fill:none;" />
<line x1='9820.7' y1='3094.4' x2='9832.6' y2='3085.3' style="stroke-width:2.0;stroke:rgb(0,0,0);stroke-linecap:round;fill:none;" />
<line x1='9925.3' y1='3237.4' x2='9933.5' y2='3231.7' style="stroke-width:2.0;stroke:rgb(0,0,0);stroke-linecap:round;fill:none;" />
<line x1='10024.6' y1='3384.2' x2='10037.2' y2='3376.0' style="stroke-width:2.0;stroke:rgb(0,0,0);stroke-linecap:round;fill:none;" />
<line x1='10118.4' y1='3534.5' x2='10127.0' y2='3529.4' style="stroke-width:2.0;stroke:rgb(0,0,0);stroke-linecap:round;fill:none;" />
<path d="M9299.141,2617.502 A4725.000,4725.000 40.000 0,1 10061.142,3584.891 L10125.605,3546.556 A4800.000,4800.000 0.000 0,0 9351.508,2563.811 Z" style="stroke-width:2.0;stroke:rgb(0,0,0);stroke-linecap:round;fill:none;" />
<path d="M10096.484,3645.335 A4725.000,4725.000 40.000 0,1 10535.604,4675.643 L10607.598,4654.621 A4800.000,4800.000 0.000 0,0 10161.507,3607.960 Z" style="stroke-width:2.0;stroke:rgb(0,0,0);stroke-linecap:round;fill:rgb(0,0,0);" />
<text x="10162.7" y="4225.8" font-size="195.0px" font-family="CMUBright-Bold" style="text-anchor:middle;fill:rgb(0,0,0);" transform="rotate(426.9,10162.7,4225.8)" >LG13</text>
<line x1='10161.5' y1='3608.0' x2='10174.5' y2='3600.5' style="stroke-width:2.0;stroke:rgb(0,0,0);stroke-linecap:round;fill:none;" />
<line x1='10247.0' y1='3763.2' x2='10255.8' y2='3758.5' style="stroke-width:2.0;stroke:rgb(0,0,0);stroke-linecap:round;fill:none;" />
<line x1='10326.6' y1='3921.5' x2='10340.2' y2='3915.0' style="stroke-width:2.0;stroke:rgb(0,0,0);stroke-linecap:round;fill:none;" />
<line x1='10400.4' y1='4082.6' x2='10409.6' y2='4078.6' style="stroke-width:2.0;stroke:rgb(0,0,0);stroke-linecap:round;fill:none;" />
<line x1='10468.2' y1='4246.4' x2='10482.2' y2='4240.9' style="stroke-width:2.0;stroke:rgb(0,0,0);stroke-linecap:round;fill:none;" />
<line x1='10529.9' y1='4412.5' x2='10539.3' y2='4409.2' style="stroke-width:2.0;stroke:rgb(0,0,0);stroke-linecap:round;fill:none;" />
<line x1='10585.4' y1='4580.8' x2='10599.7' y2='4576.4' style="stroke-width:2.0;stroke:rgb(0,0,0);stroke-linecap:round;fill:none;" />
<path d="M10096.484,3645.335 A4725.000,4725.000 40.000 0,1 10535.604,4675.643 L10607.598,4654.621 A4800.000,4800.000 0.000 0,0 10161.507,3607.960 Z" style="stroke-width:2.0;stroke:rgb(0,0,0);stroke-linecap:round;fill:none;" />
<path d="M10554.731,4742.998 A4725.000,4725.000 40.000 0,1 10712.467,5656.085 L10787.268,5650.626 A4800.000,4800.000 0.000 0,0 10627.028,4723.046 Z" style="stroke-width:2.0;stroke:rgb(0,0,0);stroke-linecap:round;fill:rgb(0,0,0);" />
<text x="10459.0" y="5229.7" font-size="195.0px" font-family="CMUBright-Bold" style="text-anchor:middle;fill:rgb(0,0,0);" transform="rotate(440.2,10459.0,5229.7)" >LG14</text>
<line x1='10627.0' y1='4723.0' x2='10641.5' y2='4719.1' style="stroke-width:2.0;stroke:rgb(0,0,0);stroke-linecap:round;fill:none;" />
<line x1='10671.0' y1='4894.7' x2='10680.7' y2='4892.4' style="stroke-width:2.0;stroke:rgb(0,0,0);stroke-linecap:round;fill:none;" />
<line x1='10708.6' y1='5067.9' x2='10723.3' y2='5065.0' style="stroke-width:2.0;stroke:rgb(0,0,0);stroke-linecap:round;fill:none;" />
<line x1='10739.8' y1='5242.3' x2='10749.7' y2='5240.8' style="stroke-width:2.0;stroke:rgb(0,0,0);stroke-linecap:round;fill:none;" />
<line x1='10764.6' y1='5417.8' x2='10779.5' y2='5416.0' style="stroke-width:2.0;stroke:rgb(0,0,0);stroke-linecap:round;fill:none;" />
<line x1='10782.8' y1='5594.1' x2='10792.8' y2='5593.2' style="stroke-width:2.0;stroke:rgb(0,0,0);stroke-linecap:round;fill:none;" />
<path d="M10554.731,4742.998 A4725.000,4725.000 40.000 0,1 10712.467,5656.085 L10787.268,5650.626 A4800.000,4800.000 0.000 0,0 10627.028,4723.046 Z" style="stroke-width:2.0;stroke:rgb(0,0,0);stroke-linecap:round;fill:none;" />
<path d="M10717.046,5725.954 A4725.000,4725.000 40.000 0,1 10614.715,7014.905 L10687.964,7031.015 A4800.000,4800.000 0.000 0,0 10791.920,5721.604 Z" style="stroke-width:2.0;stroke:rgb(0,0,0);stroke-linecap:round;fill:rgb(0,0,0);" />
<text x="10659.3" y="6369.9" font-size="195.0px" font-family="CMUBright-Bold" style="text-anchor:middle;fill:rgb(0,0,0);" transform="rotate(-85.5,10659.3,6369.9)" >LG15</text>
<line x1='10791.9' y1='5721.6' x2='10806.9' y2='5720.7' style="stroke-width:2.0;stroke:rgb(0,0,0);stroke-linecap:round;fill:none;" />
<line x1='10798.9' y1='5898.7' x2='10808.9' y2='5898.5' style="stroke-width:2.0;stroke:rgb(0,0,0);stroke-linecap:round;fill:none;" />
<line x1='10799.4' y1='6075.9' x2='10814.4' y2='6076.1' style="stroke-width:2.0;stroke:rgb(0,0,0);stroke-linecap:round;fill:none;" />
<line x1='10793.3' y1='6253.0' x2='10803.3' y2='6253.5' style="stroke-width:2.0;stroke:rgb(0,0,0);stroke-linecap:round;fill:none;" />
<line x1='10780.7' y1='6429.8' x2='10795.7' y2='6431.1' style="stroke-width:2.0;stroke:rgb(0,0,0);stroke-linecap:round;fill:none;" />
<line x1='10761.6' y1='6605.9' x2='10771.5' y2='6607.2' style="stroke-width:2.0;stroke:rgb(0,0,0);stroke-linecap:round;fill:none;" />
<line x1='10736.0' y1='6781.3' x2='10750.8' y2='6783.7' style="stroke-width:2.0;stroke:rgb(0,0,0);stroke-linecap:round;fill:none;" />
<line x1='10703.9' y1='6955.6' x2='10713.7' y2='6957.6' style="stroke-width:2.0;stroke:rgb(0,0,0);stroke-linecap:round;fill:none;" />
<path d="M10717.046,5725.954 A4725.000,4725.000 40.000 0,1 10614.715,7014.905 L10687.964,7031.015 A4800.000,4800.000 0.000 0,0 10791.920,5721.604 Z" style="stroke-width:2.0;stroke:rgb(0,0,0);stroke-linecap:round;fill:none;" />
<path d="M10599.169,7083.176 A4725.000,4725.000 40.000 0,1 10184.008,8195.381 L10250.421,8230.228 A4800.000,4800.000 0.000 0,0 10672.172,7100.369 Z" style="stroke-width:2.0;stroke:rgb(0,0,0);stroke-linecap:round;fill:rgb(0,0,0);" />
<text x="10378.9" y="7634.5" font-size="195.0px" font-family="CMUBright-Bold" style="text-anchor:middle;fill:rgb(0,0,0);" transform="rotate(-69.5,10378.9,7634.5)" >LG16</text>
<line x1='10672.2' y1='7100.4' x2='10686.8' y2='7103.8' style="stroke-width:2.0;stroke:rgb(0,0,0);stroke-linecap:round;fill:none;" />
<line x1='10628.4' y1='7272.1' x2='10638.0' y2='7274.7' style="stroke-width:2.0;stroke:rgb(0,0,0);stroke-linecap:round;fill:none;" />
<line x1='10578.3' y1='7442.1' x2='10592.6' y2='7446.6' style="stroke-width:2.0;stroke:rgb(0,0,0);stroke-linecap:round;fill:none;" />
<line x1='10521.9' y1='7610.1' x2='10531.3' y2='7613.4' style="stroke-width:2.0;stroke:rgb(0,0,0);stroke-linecap:round;fill:none;" />
<line x1='10459.4' y1='7775.9' x2='10473.3' y2='7781.5' style="stroke-width:2.0;stroke:rgb(0,0,0);stroke-linecap:round;fill:none;" />
<line x1='10390.8' y1='7939.3' x2='10399.9' y2='7943.3' style="stroke-width:2.0;stroke:rgb(0,0,0);stroke-linecap:round;fill:none;" />
<line x1='10316.2' y1='8100.1' x2='10329.7' y2='8106.6' style="stroke-width:2.0;stroke:rgb(0,0,0);stroke-linecap:round;fill:none;" />
<path d="M10599.169,7083.176 A4725.000,4725.000 40.000 0,1 10184.008,8195.381 L10250.421,8230.228 A4800.000,4800.000 0.000 0,0 10672.172,7100.369 Z" style="stroke-width:2.0;stroke:rgb(0,0,0);stroke-linecap:round;fill:none;" />
<path d="M10151.017,8257.140 A4725.000,4725.000 40.000 0,1 9544.532,9124.407 L9600.794,9174.001 A4800.000,4800.000 0.000 0,0 10216.906,8292.967 Z" style="stroke-width:2.0;stroke:rgb(0,0,0);stroke-linecap:round;fill:rgb(0,0,0);" />
<text x="9830.3" y="8678.6" font-size="195.0px" font-family="CMUBright-Bold" style="text-anchor:middle;fill:rgb(0,0,0);" transform="rotate(-55.0,9830.3,8678.6)" >LG17</text>
<line x1='10216.9' y1='8293.0' x2='10230.1' y2='8300.1' style="stroke-width:2.0;stroke:rgb(0,0,0);stroke-linecap:round;fill:none;" />
<line x1='10129.4' y1='8447.1' x2='10138.0' y2='8452.2' style="stroke-width:2.0;stroke:rgb(0,0,0);stroke-linecap:round;fill:none;" />
<line x1='10036.2' y1='8597.8' x2='10048.9' y2='8605.9' style="stroke-width:2.0;stroke:rgb(0,0,0);stroke-linecap:round;fill:none;" />
<line x1='9937.6' y1='8745.0' x2='9945.8' y2='8750.8' style="stroke-width:2.0;stroke:rgb(0,0,0);stroke-linecap:round;fill:none;" />
<line x1='9833.6' y1='8888.5' x2='9845.6' y2='8897.6' style="stroke-width:2.0;stroke:rgb(0,0,0);stroke-linecap:round;fill:none;" />
<line x1='9724.4' y1='9028.1' x2='9732.1' y2='9034.4' style="stroke-width:2.0;stroke:rgb(0,0,0);stroke-linecap:round;fill:none;" />
<line x1='9610.0' y1='9163.5' x2='9621.3' y2='9173.4' style="stroke-width:2.0;stroke:rgb(0,0,0);stroke-linecap:round;fill:none;" />
<path d="M10151.017,8257.140 A4725.000,4725.000 40.000 0,1 9544.532,9124.407 L9600.794,9174.001 A4800.000,4800.000 0.000 0,0 10216.906,8292.967 Z" style="stroke-width:2.0;stroke:rgb(0,0,0);stroke-linecap:round;fill:none;" />
<path d="M9497.844,9176.588 A4725.000,4725.000 40.000 0,1 8547.048,9979.720 L8587.477,10042.890 A4800.000,4800.000 0.000 0,0 9553.365,9227.010 Z" style="stroke-width:2.0;stroke:rgb(0,0,0);stroke-linecap:round;fill:rgb(0,0,0);" />
<text x="9016.1" y="9570.6" font-size="195.0px" font-family="CMUBright-Bold" style="text-anchor:middle;fill:rgb(0,0,0);" transform="rotate(-40.2,9016.1,9570.6)" >LG18</text>
<line x1='9553.4' y1='9227.0' x2='9564.5' y2='9237.1' style="stroke-width:2.0;stroke:rgb(0,0,0);stroke-linecap:round;fill:none;" />
<line x1='9431.8' y1='9356.0' x2='9439.0' y2='9363.0' style="stroke-width:2.0;stroke:rgb(0,0,0);stroke-linecap:round;fill:none;" />
<line x1='9305.6' y1='9480.4' x2='9315.9' y2='9491.2' style="stroke-width:2.0;stroke:rgb(0,0,0);stroke-linecap:round;fill:none;" />
<line x1='9174.9' y1='9600.0' x2='9181.5' y2='9607.5' style="stroke-width:2.0;stroke:rgb(0,0,0);stroke-linecap:round;fill:none;" />
<line x1='9039.8' y1='9714.8' x2='9049.3' y2='9726.4' style="stroke-width:2.0;stroke:rgb(0,0,0);stroke-linecap:round;fill:none;" />
<line x1='8900.6' y1='9824.4' x2='8906.7' y2='9832.4' style="stroke-width:2.0;stroke:rgb(0,0,0);stroke-linecap:round;fill:none;" />
<line x1='8757.5' y1='9928.9' x2='8766.1' y2='9941.2' style="stroke-width:2.0;stroke:rgb(0,0,0);stroke-linecap:round;fill:none;" />
<line x1='8610.6' y1='10028.0' x2='8616.0' y2='10036.4' style="stroke-width:2.0;stroke:rgb(0,0,0);stroke-linecap:round;fill:none;" />
<path d="M9497.844,9176.588 A4725.000,4725.000 40.000 0,1 8547.048,9979.720 L8587.477,10042.890 A4800.000,4800.000 0.000 0,0 9553.365,9227.010 Z" style="stroke-width:2.0;stroke:rgb(0,0,0);stroke-linecap:round;fill:none;" />
<path d="M8487.796,10017.026 A4725.000,4725.000 40.000 0,1 7577.134,10454.018 L7602.168,10524.716 A4800.000,4800.000 0.000 0,0 8527.285,10080.788 Z" style="stroke-width:2.0;stroke:rgb(0,0,0);stroke-linecap:round;fill:rgb(0,0,0);" />
<text x="8022.1" y="10213.9" font-size="195.0px" font-family="CMUBright-Bold" style="text-anchor:middle;fill:rgb(0,0,0);" transform="rotate(-25.6,8022.1,10213.9)" >LG19</text>
<line x1='8527.3' y1='10080.8' x2='8535.2' y2='10093.5' style="stroke-width:2.0;stroke:rgb(0,0,0);stroke-linecap:round;fill:none;" />
<line x1='8374.9' y1='10171.3' x2='8379.9' y2='10180.0' style="stroke-width:2.0;stroke:rgb(0,0,0);stroke-linecap:round;fill:none;" />
<line x1='8219.3' y1='10256.1' x2='8226.3' y2='10269.4' style="stroke-width:2.0;stroke:rgb(0,0,0);stroke-linecap:round;fill:none;" />
<line x1='8060.7' y1='10335.1' x2='8065.0' y2='10344.2' style="stroke-width:2.0;stroke:rgb(0,0,0);stroke-linecap:round;fill:none;" />
<line x1='7899.3' y1='10408.3' x2='7905.2' y2='10422.0' style="stroke-width:2.0;stroke:rgb(0,0,0);stroke-linecap:round;fill:none;" />
<line x1='7735.3' y1='10475.4' x2='7738.9' y2='10484.7' style="stroke-width:2.0;stroke:rgb(0,0,0);stroke-linecap:round;fill:none;" />
<path d="M8487.796,10017.026 A4725.000,4725.000 40.000 0,1 7577.134,10454.018 L7602.168,10524.716 A4800.000,4800.000 0.000 0,0 8527.285,10080.788 Z" style="stroke-width:2.0;stroke:rgb(0,0,0);stroke-linecap:round;fill:none;" />
<path d="M7510.960,10476.899 A4725.000,4725.000 40.000 0,1 6554.509,10692.350 L6563.311,10766.831 A4800.000,4800.000 0.000 0,0 7534.943,10547.961 Z" style="stroke-width:2.0;stroke:rgb(0,0,0);stroke-linecap:round;fill:rgb(0,0,0);" />
<text x="7027.1" y="10559.7" font-size="195.0px" font-family="CMUBright-Bold" style="text-anchor:middle;fill:rgb(0,0,0);" transform="rotate(-12.7,7027.1,10559.7)" >LG2</text>
<line x1='7534.9' y1='10548.0' x2='7539.7' y2='10562.2' style="stroke-width:2.0;stroke:rgb(0,0,0);stroke-linecap:round;fill:none;" />
<line x1='7366.0' y1='10601.5' x2='7368.9' y2='10611.1' style="stroke-width:2.0;stroke:rgb(0,0,0);stroke-linecap:round;fill:none;" />
<line x1='7195.2' y1='10648.8' x2='7199.0' y2='10663.3' style="stroke-width:2.0;stroke:rgb(0,0,0);stroke-linecap:round;fill:none;" />
<line x1='7022.8' y1='10689.8' x2='7024.9' y2='10699.5' style="stroke-width:2.0;stroke:rgb(0,0,0);stroke-linecap:round;fill:none;" />
<line x1='6849.0' y1='10724.3' x2='6851.7' y2='10739.1' style="stroke-width:2.0;stroke:rgb(0,0,0);stroke-linecap:round;fill:none;" />
<line x1='6674.0' y1='10752.4' x2='6675.4' y2='10762.3' style="stroke-width:2.0;stroke:rgb(0,0,0);stroke-linecap:round;fill:none;" />
<path d="M7510.960,10476.899 A4725.000,4725.000 40.000 0,1 6554.509,10692.350 L6563.311,10766.831 A4800.000,4800.000 0.000 0,0 7534.943,10547.961 Z" style="stroke-width:2.0;stroke:rgb(0,0,0);stroke-linecap:round;fill:none;" />
<path d="M6484.916,10700.051 A4725.000,4725.000 40.000 0,1 5267.549,10667.884 L5255.923,10741.977 A4800.000,4800.000 0.000 0,0 6492.613,10774.655 Z" style="stroke-width:2.0;stroke:rgb(0,0,0);stroke-linecap:round;fill:rgb(0,0,0);" />
<text x="5876.5" y="10672.4" font-size="195.0px" font-family="CMUBright-Bold" style="text-anchor:middle;fill:rgb(0,0,0);" transform="rotate(1.5,5876.5,10672.4)" >LG20</text>
<line x1='6492.6' y1='10774.7' x2='6494.2' y2='10789.6' style="stroke-width:2.0;stroke:rgb(0,0,0);stroke-linecap:round;fill:none;" />
<line x1='6316.0' y1='10789.6' x2='6316.7' y2='10799.6' style="stroke-width:2.0;stroke:rgb(0,0,0);stroke-linecap:round;fill:none;" />
<line x1='6139.0' y1='10798.0' x2='6139.4' y2='10813.0' style="stroke-width:2.0;stroke:rgb(0,0,0);stroke-linecap:round;fill:none;" />
<line x1='5961.8' y1='10799.8' x2='5961.7' y2='10809.8' style="stroke-width:2.0;stroke:rgb(0,0,0);stroke-linecap:round;fill:none;" />
<line x1='5784.7' y1='10795.2' x2='5784.0' y2='10810.2' style="stroke-width:2.0;stroke:rgb(0,0,0);stroke-linecap:round;fill:none;" />
<line x1='5607.8' y1='10783.9' x2='5607.0' y2='10793.9' style="stroke-width:2.0;stroke:rgb(0,0,0);stroke-linecap:round;fill:none;" />
<line x1='5431.5' y1='10766.2' x2='5429.7' y2='10781.1' style="stroke-width:2.0;stroke:rgb(0,0,0);stroke-linecap:round;fill:none;" />
<line x1='5255.9' y1='10742.0' x2='5254.4' y2='10751.9' style="stroke-width:2.0;stroke:rgb(0,0,0);stroke-linecap:round;fill:none;" />
<path d="M6484.916,10700.051 A4725.000,4725.000 40.000 0,1 5267.549,10667.884 L5255.923,10741.977 A4800.000,4800.000 0.000 0,0 6492.613,10774.655 Z" style="stroke-width:2.0;stroke:rgb(0,0,0);stroke-linecap:round;fill:none;" />
<path d="M5198.459,10656.518 A4725.000,4725.000 40.000 0,1 4125.166,10337.122 L4095.407,10405.965 A4800.000,4800.000 0.000 0,0 5185.736,10730.431 Z" style="stroke-width:2.0;stroke:rgb(0,0,0);stroke-linecap:round;fill:rgb(0,0,0);" />
<text x="4666.9" y="10479.8" font-size="195.0px" font-family="CMUBright-Bold" style="text-anchor:middle;fill:rgb(0,0,0);" transform="rotate(16.6,4666.9,10479.8)" >LG21</text>
<line x1='5185.7' y1='10730.4' x2='5183.2' y2='10745.2' style="stroke-width:2.0;stroke:rgb(0,0,0);stroke-linecap:round;fill:none;" />
<line x1='5011.7' y1='10697.1' x2='5009.6' y2='10706.9' style="stroke-width:2.0;stroke:rgb(0,0,0);stroke-linecap:round;fill:none;" />
<line x1='4839.0' y1='10657.5' x2='4835.3' y2='10672.0' style="stroke-width:2.0;stroke:rgb(0,0,0);stroke-linecap:round;fill:none;" />
<line x1='4667.8' y1='10611.4' x2='4665.1' y2='10621.0' style="stroke-width:2.0;stroke:rgb(0,0,0);stroke-linecap:round;fill:none;" />
<line x1='4498.5' y1='10559.1' x2='4493.8' y2='10573.4' style="stroke-width:2.0;stroke:rgb(0,0,0);stroke-linecap:round;fill:none;" />
<line x1='4331.2' y1='10500.6' x2='4327.8' y2='10510.0' style="stroke-width:2.0;stroke:rgb(0,0,0);stroke-linecap:round;fill:none;" />
<line x1='4166.2' y1='10435.9' x2='4160.5' y2='10449.8' style="stroke-width:2.0;stroke:rgb(0,0,0);stroke-linecap:round;fill:none;" />
<path d="M5198.459,10656.518 A4725.000,4725.000 40.000 0,1 4125.166,10337.122 L4095.407,10405.965 A4800.000,4800.000 0.000 0,0 5185.736,10730.431 Z" style="stroke-width:2.0;stroke:rgb(0,0,0);stroke-linecap:round;fill:none;" />
<path d="M4061.103,10308.864 A4725.000,4725.000 40.000 0,1 2944.716,9604.284 L2896.220,9661.495 A4800.000,4800.000 0.000 0,0 4030.327,10377.258 Z" style="stroke-width:2.0;stroke:rgb(0,0,0);stroke-linecap:round;fill:rgb(0,0,0);" />
<text x="3505.4" y="9952.6" font-size="195.0px" font-family="CMUBright-Bold" style="text-anchor:middle;fill:rgb(0,0,0);" transform="rotate(32.3,3505.4,9952.6)" >LG22</text>
<line x1='4030.3' y1='10377.3' x2='4024.2' y2='10390.9' style="stroke-width:2.0;stroke:rgb(0,0,0);stroke-linecap:round;fill:none;" />
<line x1='3870.1' y1='10301.6' x2='3865.7' y2='10310.5' style="stroke-width:2.0;stroke:rgb(0,0,0);stroke-linecap:round;fill:none;" />
<line x1='3712.8' y1='10220.0' x2='3705.6' y2='10233.2' style="stroke-width:2.0;stroke:rgb(0,0,0);stroke-linecap:round;fill:none;" />
<line x1='3558.5' y1='10132.7' x2='3553.5' y2='10141.3' style="stroke-width:2.0;stroke:rgb(0,0,0);stroke-linecap:round;fill:none;" />
<line x1='3407.7' y1='10039.8' x2='3399.6' y2='10052.4' style="stroke-width:2.0;stroke:rgb(0,0,0);stroke-linecap:round;fill:none;" />
<line x1='3260.3' y1='9941.3' x2='3254.6' y2='9949.5' style="stroke-width:2.0;stroke:rgb(0,0,0);stroke-linecap:round;fill:none;" />
<line x1='3116.7' y1='9837.5' x2='3107.7' y2='9849.5' style="stroke-width:2.0;stroke:rgb(0,0,0);stroke-linecap:round;fill:none;" />
<line x1='2977.0' y1='9728.5' x2='2970.7' y2='9736.2' style="stroke-width:2.0;stroke:rgb(0,0,0);stroke-linecap:round;fill:none;" />
<path d="M4061.103,10308.864 A4725.000,4725.000 40.000 0,1 2944.716,9604.284 L2896.220,9661.495 A4800.000,4800.000 0.000 0,0 4030.327,10377.258 Z" style="stroke-width:2.0;stroke:rgb(0,0,0);stroke-linecap:round;fill:none;" />
<path d="M2891.642,9558.614 A4725.000,4725.000 40.000 0,1 2130.455,8711.502 L2069.034,8754.542 A4800.000,4800.000 0.000 0,0 2842.303,9615.100 Z" style="stroke-width:2.0;stroke:rgb(0,0,0);stroke-linecap:round;fill:rgb(0,0,0);" />
<text x="2523.4" y="9124.0" font-size="195.0px" font-family="CMUBright-Bold" style="text-anchor:middle;fill:rgb(0,0,0);" transform="rotate(48.1,2523.4,9124.0)" >LG23</text>
<line x1='2842.3' y1='9615.1' x2='2832.4' y2='9626.4' style="stroke-width:2.0;stroke:rgb(0,0,0);stroke-linecap:round;fill:none;" />
<line x1='2711.0' y1='9496.1' x2='2704.2' y2='9503.4' style="stroke-width:2.0;stroke:rgb(0,0,0);stroke-linecap:round;fill:none;" />
<line x1='2584.2' y1='9372.3' x2='2573.5' y2='9382.8' style="stroke-width:2.0;stroke:rgb(0,0,0);stroke-linecap:round;fill:none;" />
<line x1='2462.0' y1='9243.9' x2='2454.7' y2='9250.7' style="stroke-width:2.0;stroke:rgb(0,0,0);stroke-linecap:round;fill:none;" />
<line x1='2344.7' y1='9111.1' x2='2333.3' y2='9120.8' style="stroke-width:2.0;stroke:rgb(0,0,0);stroke-linecap:round;fill:none;" />
<line x1='2232.4' y1='8974.0' x2='2224.5' y2='8980.2' style="stroke-width:2.0;stroke:rgb(0,0,0);stroke-linecap:round;fill:none;" />
<line x1='2125.1' y1='8832.9' x2='2113.0' y2='8841.8' style="stroke-width:2.0;stroke:rgb(0,0,0);stroke-linecap:round;fill:none;" />
<path d="M2891.642,9558.614 A4725.000,4725.000 40.000 0,1 2130.455,8711.502 L2069.034,8754.542 A4800.000,4800.000 0.000 0,0 2842.303,9615.100 Z" style="stroke-width:2.0;stroke:rgb(0,0,0);stroke-linecap:round;fill:none;" />
<path d="M2090.700,8653.865 A4725.000,4725.000 40.000 0,1 1574.127,7654.470 L1503.875,7680.732 A4800.000,4800.000 0.000 0,0 2028.648,8695.990 Z" style="stroke-width:2.0;stroke:rgb(0,0,0);stroke-linecap:round;fill:rgb(0,0,0);" />
<text x="1847.9" y="8146.2" font-size="195.0px" font-family="CMUBright-Bold" style="text-anchor:middle;fill:rgb(0,0,0);" transform="rotate(62.7,1847.9,8146.2)" >LG24</text>
<line x1='2028.6' y1='8696.0' x2='2016.2' y2='8704.4' style="stroke-width:2.0;stroke:rgb(0,0,0);stroke-linecap:round;fill:none;" />
<line x1='1931.8' y1='8547.6' x2='1923.4' y2='8552.9' style="stroke-width:2.0;stroke:rgb(0,0,0);stroke-linecap:round;fill:none;" />
<line x1='1840.6' y1='8395.7' x2='1827.6' y2='8403.1' style="stroke-width:2.0;stroke:rgb(0,0,0);stroke-linecap:round;fill:none;" />
<line x1='1755.0' y1='8240.5' x2='1746.1' y2='8245.1' style="stroke-width:2.0;stroke:rgb(0,0,0);stroke-linecap:round;fill:none;" />
<line x1='1675.2' y1='8082.3' x2='1661.6' y2='8088.8' style="stroke-width:2.0;stroke:rgb(0,0,0);stroke-linecap:round;fill:none;" />
<line x1='1601.2' y1='7921.2' x2='1592.1' y2='7925.2' style="stroke-width:2.0;stroke:rgb(0,0,0);stroke-linecap:round;fill:none;" />
<line x1='1533.3' y1='7757.5' x2='1519.4' y2='7763.0' style="stroke-width:2.0;stroke:rgb(0,0,0);stroke-linecap:round;fill:none;" />
<path d="M2090.700,8653.865 A4725.000,4725.000 40.000 0,1 1574.127,7654.470 L1503.875,7680.732 A4800.000,4800.000 0.000 0,0 2028.648,8695.990 Z" style="stroke-width:2.0;stroke:rgb(0,0,0);stroke-linecap:round;fill:none;" />
<path d="M1550.096,7588.705 A4725.000,4725.000 40.000 0,1 1295.028,6434.583 L1220.346,6441.481 A4800.000,4800.000 0.000 0,0 1479.463,7613.922 Z" style="stroke-width:2.0;stroke:rgb(0,0,0);stroke-linecap:round;fill:rgb(0,0,0);" />
<text x="1436.1" y="7008.6" font-size="195.0px" font-family="CMUBright-Bold" style="text-anchor:middle;fill:rgb(0,0,0);" transform="rotate(77.5,1436.1,7008.6)" >LG3</text>
<line x1='1479.5' y1='7613.9' x2='1465.3' y2='7619.0' style="stroke-width:2.0;stroke:rgb(0,0,0);stroke-linecap:round;fill:none;" />
<line x1='1423.0' y1='7446.0' x2='1413.4' y2='7449.0' style="stroke-width:2.0;stroke:rgb(0,0,0);stroke-linecap:round;fill:none;" />
<line x1='1372.7' y1='7276.0' x2='1358.3' y2='7280.0' style="stroke-width:2.0;stroke:rgb(0,0,0);stroke-linecap:round;fill:none;" />
<line x1='1328.8' y1='7104.3' x2='1319.0' y2='7106.6' style="stroke-width:2.0;stroke:rgb(0,0,0);stroke-linecap:round;fill:none;" />
<line x1='1291.2' y1='6931.2' x2='1276.5' y2='6934.1' style="stroke-width:2.0;stroke:rgb(0,0,0);stroke-linecap:round;fill:none;" />
<line x1='1260.0' y1='6756.7' x2='1250.1' y2='6758.3' style="stroke-width:2.0;stroke:rgb(0,0,0);stroke-linecap:round;fill:none;" />
<line x1='1235.3' y1='6581.2' x2='1220.4' y2='6583.0' style="stroke-width:2.0;stroke:rgb(0,0,0);stroke-linecap:round;fill:none;" />
<path d="M1550.096,7588.705 A4725.000,4725.000 40.000 0,1 1295.028,6434.583 L1220.346,6441.481 A4800.000,4800.000 0.000 0,0 1479.463,7613.922 Z" style="stroke-width:2.0;stroke:rgb(0,0,0);stroke-linecap:round;fill:none;" />
<path d="M1289.105,6364.815 A4725.000,4725.000 40.000 0,1 1373.315,5041.139 L1299.876,5025.919 A4800.000,4800.000 0.000 0,0 1214.329,6370.606 Z" style="stroke-width:2.0;stroke:rgb(0,0,0);stroke-linecap:round;fill:rgb(0,0,0);" />
<text x="1484.1" y="5712.7" font-size="195.0px" font-family="CMUBright-Bold" style="text-anchor:middle;fill:rgb(0,0,0);" transform="rotate(-86.4,1484.1,5712.7)" >LG4</text>
<line x1='1214.3' y1='6370.6' x2='1199.4' y2='6371.8' style="stroke-width:2.0;stroke:rgb(0,0,0);stroke-linecap:round;fill:none;" />
<line x1='1203.9' y1='6193.7' x2='1193.9' y2='6194.1' style="stroke-width:2.0;stroke:rgb(0,0,0);stroke-linecap:round;fill:none;" />
<line x1='1200.0' y1='6016.5' x2='1185.0' y2='6016.6' style="stroke-width:2.0;stroke:rgb(0,0,0);stroke-linecap:round;fill:none;" />
<line x1='1202.7' y1='5839.3' x2='1192.7' y2='5839.0' style="stroke-width:2.0;stroke:rgb(0,0,0);stroke-linecap:round;fill:none;" />
<line x1='1211.9' y1='5662.4' x2='1196.9' y2='5661.3' style="stroke-width:2.0;stroke:rgb(0,0,0);stroke-linecap:round;fill:none;" />
<line x1='1227.6' y1='5485.8' x2='1217.7' y2='5484.8' style="stroke-width:2.0;stroke:rgb(0,0,0);stroke-linecap:round;fill:none;" />
<line x1='1249.8' y1='5310.0' x2='1235.0' y2='5307.9' style="stroke-width:2.0;stroke:rgb(0,0,0);stroke-linecap:round;fill:none;" />
<line x1='1278.6' y1='5135.2' x2='1268.7' y2='5133.4' style="stroke-width:2.0;stroke:rgb(0,0,0);stroke-linecap:round;fill:none;" />
<path d="M1289.105,6364.815 A4725.000,4725.000 40.000 0,1 1373.315,5041.139 L1299.876,5025.919 A4800.000,4800.000 0.000 0,0 1214.329,6370.606 Z" style="stroke-width:2.0;stroke:rgb(0,0,0);stroke-linecap:round;fill:none;" />
<path d="M1388.032,4972.685 A4725.000,4725.000 40.000 0,1 1777.939,3878.721 L1710.922,3845.050 A4800.000,4800.000 0.000 0,0 1314.826,4956.378 Z" style="stroke-width:2.0;stroke:rgb(0,0,0);stroke-linecap:round;fill:rgb(0,0,0);" />
<text x="1737.6" y="4480.8" font-size="195.0px" font-family="CMUBright-Bold" style="text-anchor:middle;fill:rgb(0,0,0);" transform="rotate(-70.4,1737.6,4480.8)" >LG5</text>
<line x1='1314.8' y1='4956.4' x2='1300.2' y2='4953.1' style="stroke-width:2.0;stroke:rgb(0,0,0);stroke-linecap:round;fill:none;" />
<line x1='1356.5' y1='4784.1' x2='1346.9' y2='4781.6' style="stroke-width:2.0;stroke:rgb(0,0,0);stroke-linecap:round;fill:none;" />
<line x1='1404.6' y1='4613.6' x2='1390.2' y2='4609.2' style="stroke-width:2.0;stroke:rgb(0,0,0);stroke-linecap:round;fill:none;" />
<line x1='1458.9' y1='4444.9' x2='1449.4' y2='4441.6' style="stroke-width:2.0;stroke:rgb(0,0,0);stroke-linecap:round;fill:none;" />
<line x1='1519.4' y1='4278.3' x2='1505.4' y2='4272.9' style="stroke-width:2.0;stroke:rgb(0,0,0);stroke-linecap:round;fill:none;" />
<line x1='1586.0' y1='4114.1' x2='1576.8' y2='4110.2' style="stroke-width:2.0;stroke:rgb(0,0,0);stroke-linecap:round;fill:none;" />
<line x1='1658.6' y1='3952.4' x2='1645.1' y2='3946.0' style="stroke-width:2.0;stroke:rgb(0,0,0);stroke-linecap:round;fill:none;" />
<path d="M1388.032,4972.685 A4725.000,4725.000 40.000 0,1 1777.939,3878.721 L1710.922,3845.050 A4800.000,4800.000 0.000 0,0 1314.826,4956.378 Z" style="stroke-width:2.0;stroke:rgb(0,0,0);stroke-linecap:round;fill:none;" />
<path d="M1809.836,3816.390 A4725.000,4725.000 40.000 0,1 2519.465,2804.456 L2464.218,2753.733 A4800.000,4800.000 0.000 0,0 1743.326,3781.730 Z" style="stroke-width:2.0;stroke:rgb(0,0,0);stroke-linecap:round;fill:rgb(0,0,0);" />
<text x="2295.2" y="3402.0" font-size="195.0px" font-family="CMUBright-Bold" style="text-anchor:middle;fill:rgb(0,0,0);" transform="rotate(-55.0,2295.2,3402.0)" >LG6</text>
<line x1='1743.3' y1='3781.7' x2='1730.0' y2='3774.8' style="stroke-width:2.0;stroke:rgb(0,0,0);stroke-linecap:round;fill:none;" />
<line x1='1828.1' y1='3626.1' x2='1819.4' y2='3621.2' style="stroke-width:2.0;stroke:rgb(0,0,0);stroke-linecap:round;fill:none;" />
<line x1='1918.6' y1='3473.7' x2='1905.8' y2='3465.8' style="stroke-width:2.0;stroke:rgb(0,0,0);stroke-linecap:round;fill:none;" />
<line x1='2014.6' y1='3324.8' x2='2006.3' y2='3319.2' style="stroke-width:2.0;stroke:rgb(0,0,0);stroke-linecap:round;fill:none;" />
<line x1='2116.1' y1='3179.5' x2='2103.9' y2='3170.7' style="stroke-width:2.0;stroke:rgb(0,0,0);stroke-linecap:round;fill:none;" />
<line x1='2222.8' y1='3038.1' x2='2215.0' y2='3031.9' style="stroke-width:2.0;stroke:rgb(0,0,0);stroke-linecap:round;fill:none;" />
<line x1='2334.8' y1='2900.6' x2='2323.3' y2='2891.0' style="stroke-width:2.0;stroke:rgb(0,0,0);stroke-linecap:round;fill:none;" />
<line x1='2451.7' y1='2767.5' x2='2444.3' y2='2760.7' style="stroke-width:2.0;stroke:rgb(0,0,0);stroke-linecap:round;fill:none;" />
<path d="M1809.836,3816.390 A4725.000,4725.000 40.000 0,1 2519.465,2804.456 L2464.218,2753.733 A4800.000,4800.000 0.000 0,0 1743.326,3781.730 Z" style="stroke-width:2.0;stroke:rgb(0,0,0);stroke-linecap:round;fill:none;" />
<path d="M2567.200,2753.231 A4725.000,4725.000 40.000 0,1 3323.072,2106.456 L3280.581,2044.654 A4800.000,4800.000 0.000 0,0 2512.711,2701.695 Z" style="stroke-width:2.0;stroke:rgb(0,0,0);stroke-linecap:round;fill:rgb(0,0,0);" />
<text x="3058.1" y="2561.9" font-size="195.0px" font-family="CMUBright-Bold" style="text-anchor:middle;fill:rgb(0,0,0);" transform="rotate(-40.6,3058.1,2561.9)" >LG7</text>
<line x1='2512.7' y1='2701.7' x2='2501.8' y2='2691.4' style="stroke-width:2.0;stroke:rgb(0,0,0);stroke-linecap:round;fill:none;" />
<line x1='2636.8' y1='2575.2' x2='2629.8' y2='2568.1' style="stroke-width:2.0;stroke:rgb(0,0,0);stroke-linecap:round;fill:none;" />
<line x1='2765.6' y1='2453.4' x2='2755.4' y2='2442.3' style="stroke-width:2.0;stroke:rgb(0,0,0);stroke-linecap:round;fill:none;" />
<line x1='2898.7' y1='2336.4' x2='2892.2' y2='2328.8' style="stroke-width:2.0;stroke:rgb(0,0,0);stroke-linecap:round;fill:none;" />
<line x1='3036.0' y1='2224.4' x2='3026.8' y2='2212.6' style="stroke-width:2.0;stroke:rgb(0,0,0);stroke-linecap:round;fill:none;" />
<line x1='3177.4' y1='2117.6' x2='3171.5' y2='2109.5' style="stroke-width:2.0;stroke:rgb(0,0,0);stroke-linecap:round;fill:none;" />
<path d="M2567.200,2753.231 A4725.000,4725.000 40.000 0,1 3323.072,2106.456 L3280.581,2044.654 A4800.000,4800.000 0.000 0,0 2512.711,2701.695 Z" style="stroke-width:2.0;stroke:rgb(0,0,0);stroke-linecap:round;fill:none;" />
<path d="M3381.062,2067.216 A4725.000,4725.000 40.000 0,1 4515.703,1514.191 L4492.142,1442.987 A4800.000,4800.000 0.000 0,0 3339.491,2004.791 Z" style="stroke-width:2.0;stroke:rgb(0,0,0);stroke-linecap:round;fill:rgb(0,0,0);" />
<text x="4017.5" y="1932.4" font-size="195.0px" font-family="CMUBright-Bold" style="text-anchor:middle;fill:rgb(0,0,0);" transform="rotate(-26.0,4017.5,1932.4)" >LG8</text>
<line x1='3339.5' y1='2004.8' x2='3331.2' y2='1992.3' style="stroke-width:2.0;stroke:rgb(0,0,0);stroke-linecap:round;fill:none;" />
<line x1='3488.8' y1='1909.3' x2='3483.5' y2='1900.8' style="stroke-width:2.0;stroke:rgb(0,0,0);stroke-linecap:round;fill:none;" />
<line x1='3641.5' y1='1819.4' x2='3634.1' y2='1806.3' style="stroke-width:2.0;stroke:rgb(0,0,0);stroke-linecap:round;fill:none;" />
<line x1='3797.4' y1='1735.2' x2='3792.8' y2='1726.3' style="stroke-width:2.0;stroke:rgb(0,0,0);stroke-linecap:round;fill:none;" />
<line x1='3956.4' y1='1656.8' x2='3950.0' y2='1643.2' style="stroke-width:2.0;stroke:rgb(0,0,0);stroke-linecap:round;fill:none;" />
<line x1='4118.1' y1='1584.3' x2='4114.1' y2='1575.1' style="stroke-width:2.0;stroke:rgb(0,0,0);stroke-linecap:round;fill:none;" />
<line x1='4282.3' y1='1517.8' x2='4277.0' y2='1503.8' style="stroke-width:2.0;stroke:rgb(0,0,0);stroke-linecap:round;fill:none;" />
<line x1='4449.0' y1='1457.5' x2='4445.7' y2='1448.0' style="stroke-width:2.0;stroke:rgb(0,0,0);stroke-linecap:round;fill:none;" />
<path d="M3381.062,2067.216 A4725.000,4725.000 40.000 0,1 4515.703,1514.191 L4492.142,1442.987 A4800.000,4800.000 0.000 0,0 3339.491,2004.791 Z" style="stroke-width:2.0;stroke:rgb(0,0,0);stroke-linecap:round;fill:none;" />
<path d="M4582.338,1492.688 A4725.000,4725.000 40.000 0,1 5929.984,1275.519 L5928.872,1200.527 A4800.000,4800.000 0.000 0,0 4559.835,1421.144 Z" style="stroke-width:2.0;stroke:rgb(0,0,0);stroke-linecap:round;fill:rgb(0,0,0);" />
<text x="5280.1" y="1532.6" font-size="195.0px" font-family="CMUBright-Bold" style="text-anchor:middle;fill:rgb(0,0,0);" transform="rotate(-9.2,5280.1,1532.6)" >LG9</text>
<line x1='4559.8' y1='1421.1' x2='4555.3' y2='1406.8' style="stroke-width:2.0;stroke:rgb(0,0,0);stroke-linecap:round;fill:none;" />
<line x1='4729.8' y1='1371.1' x2='4727.2' y2='1361.5' style="stroke-width:2.0;stroke:rgb(0,0,0);stroke-linecap:round;fill:none;" />
<line x1='4901.6' y1='1327.4' x2='4898.1' y2='1312.8' style="stroke-width:2.0;stroke:rgb(0,0,0);stroke-linecap:round;fill:none;" />
<line x1='5074.8' y1='1290.0' x2='5072.9' y2='1280.2' style="stroke-width:2.0;stroke:rgb(0,0,0);stroke-linecap:round;fill:none;" />
<line x1='5249.3' y1='1259.1' x2='5246.9' y2='1244.3' style="stroke-width:2.0;stroke:rgb(0,0,0);stroke-linecap:round;fill:none;" />
<line x1='5424.8' y1='1234.6' x2='5423.6' y2='1224.7' style="stroke-width:2.0;stroke:rgb(0,0,0);stroke-linecap:round;fill:none;" />
<line x1='5601.1' y1='1216.6' x2='5599.9' y2='1201.7' style="stroke-width:2.0;stroke:rgb(0,0,0);stroke-linecap:round;fill:none;" />
<line x1='5778.0' y1='1205.1' x2='5777.5' y2='1195.1' style="stroke-width:2.0;stroke:rgb(0,0,0);stroke-linecap:round;fill:none;" />
<path d="M4582.338,1492.688 A4725.000,4725.000 40.000 0,1 5929.984,1275.519 L5928.872,1200.527 A4800.000,4800.000 0.000 0,0 4559.835,1421.144 Z" style="stroke-width:2.0;stroke:rgb(0,0,0);stroke-linecap:round;fill:none;" />
</g>
<g id="plot0">
<g id="plot0-axis">
</g>
<path d="M7341.451,1341.286 A4848.000,4848.000 40.000 0,1 7424.142,1365.896 L7438.830,1318.102 A4898.000,4898.000 0.000 0,0 7355.286,1293.238 Z" style="stroke-width:15.0;stroke:rgb(90,43,130);stroke-linecap:round;fill:rgb(90,43,130);" />
<path d="M7627.828,1433.461 A4848.000,4848.000 40.000 0,1 7725.238,1469.364 L7743.031,1422.638 A4898.000,4898.000 0.000 0,0 7644.616,1386.364 Z" style="stroke-width:15.0;stroke:rgb(90,43,130);stroke-linecap:round;fill:rgb(90,43,130);" />
<path d="M7644.784,1385.893 A4898.500,4898.500 40.000 0,1 7743.209,1422.170 L7761.002,1375.443 A4948.500,4948.500 0.000 0,0 7661.573,1338.795 Z" style="stroke-width:15.0;stroke:rgb(90,43,130);stroke-linecap:round;fill:rgb(90,43,130);" />
<path d="M9584.986,2736.416 A4848.000,4848.000 40.000 0,1 9659.335,2820.005 L9697.076,2787.208 A4898.000,4898.000 0.000 0,0 9621.959,2702.757 Z" style="stroke-width:15.0;stroke:rgb(90,43,130);stroke-linecap:round;fill:rgb(90,43,130);" />
<path d="M9703.821,2871.931 A4848.000,4848.000 40.000 0,1 9758.560,2937.921 L9797.324,2906.340 A4898.000,4898.000 0.000 0,0 9742.020,2839.670 Z" style="stroke-width:15.0;stroke:rgb(90,43,130);stroke-linecap:round;fill:rgb(90,43,130);" />
<path d="M10365.793,3892.168 A4848.000,4848.000 40.000 0,1 10370.607,3902.167 L10415.683,3880.531 A4898.000,4898.000 0.000 0,0 10410.820,3870.428 Z" style="stroke-width:15.0;stroke:rgb(90,43,130);stroke-linecap:round;fill:rgb(90,43,130);" />
<path d="M10411.270,3870.211 A4898.500,4898.500 40.000 0,1 10416.134,3880.315 L10461.210,3858.679 A4948.500,4948.500 0.000 0,0 10456.297,3848.472 Z" style="stroke-width:15.0;stroke:rgb(90,43,130);stroke-linecap:round;fill:rgb(90,43,130);" />
<path d="M10764.532,5104.266 A4848.000,4848.000 40.000 0,1 10765.159,5107.609 L10814.305,5098.405 A4898.000,4898.000 0.000 0,0 10813.671,5095.028 Z" style="stroke-width:15.0;stroke:rgb(90,43,130);stroke-linecap:round;fill:rgb(90,43,130);" />
<path d="M7769.793,10513.417 A4848.000,4848.000 40.000 0,1 7724.712,10530.836 L7742.500,10577.565 A4898.000,4898.000 0.000 0,0 7788.046,10559.967 Z" style="stroke-width:15.0;stroke:rgb(90,43,130);stroke-linecap:round;fill:rgb(90,43,130);" />
<path d="M2539.933,2604.261 A4848.000,4848.000 40.000 0,1 2543.069,2601.069 L2507.416,2566.014 A4898.000,4898.000 0.000 0,0 2504.248,2569.239 Z" style="stroke-width:15.0;stroke:rgb(90,43,130);stroke-linecap:round;fill:rgb(90,43,130);" />
</g>
</svg>
