<?xml version="1.0" encoding="utf-8" standalone="no"?>
<!DOCTYPE svg PUBLIC "-//W3C//DTD SVG 1.1//EN" "http://www.w3.org/Graphics/SVG/1.1/DTD/svg11.dtd">
<svg width="12000px" height="12000px" version="1.1" xmlns="http://www.w3.org/2000/svg" xmlns:xlink="http://www.w3.org/1999/xlink">
<g id="ideograms">
<path d="M6000.000,1275.000 A4725.000,4725.000 40.000 0,1 7130.900,1412.333 L7148.850,1339.513 A4800.000,4800.000 0.000 0,0 6000.000,1200.000 Z" style="stroke-width:2.0;stroke:rgb(0,0,0);stroke-linecap:round;fill:rgb(0,0,0);" />
<text x="6545.5" y="1508.0" font-size="195.0px" font-family="CMUBright-Bold" style="text-anchor:middle;fill:rgb(0,0,0);" transform="rotate(366.9,6545.5,1508.0)" >LG1</text>
<line x1='6000.0' y1='1200.0' x2='6000.0' y2='1185.0' style="stroke-width:2.0;stroke:rgb(0,0,0);stroke-linecap:round;fill:none;" />
<line x1='6177.2' y1='1203.3' x2='6177.6' y2='1193.3' style="stroke-width:2.0;stroke:rgb(0,0,0);stroke-linecap:round;fill:none;" />
<line x1='6354.1' y1='1213.1' x2='6355.2' y2='1198.1' style="stroke-width:2.0;stroke:rgb(0,0,0);stroke-linecap:round;fill:none;" />
<line x1='6530.6' y1='1229.4' x2='6531.7' y2='1219.5' style="stroke-width:2.0;stroke:rgb(0,0,0);stroke-linecap:round;fill:none;" />
<line x1='6706.3' y1='1252.3' x2='6708.5' y2='1237.4' style="stroke-width:2.0;stroke:rgb(0,0,0);stroke-linecap:round;fill:none;" />
<line x1='6881.1' y1='1281.6' x2='6882.9' y2='1271.7' style="stroke-width:2.0;stroke:rgb(0,0,0);stroke-linecap:round;fill:none;" />
<line x1='7054.7' y1='1317.3' x2='7058.0' y2='1302.7' style="stroke-width:2.0;stroke:rgb(0,0,0);stroke-linecap:round;fill:none;" />
<path d="M6000.000,1275.000 A4725.000,4725.000 40.000 0,1 7130.900,1412.333 L7148.850,1339.513 A4800.000,4800.000 0.000 0,0 6000.000,1200.000 Z" style="stroke-width:2.0;stroke:rgb(0,0,0);stroke-linecap:round;fill:none;" />
<path d="M7198.757,1429.594 A4725.000,4725.000 40.000 0,1 8116.172,1775.377 L8149.762,1708.319 A4800.000,4800.000 0.000 0,0 7217.785,1357.048 Z" style="stroke-width:2.0;stroke:rgb(0,0,0);stroke-linecap:round;fill:rgb(0,0,0);" />
<text x="7595.9" y="1765.8" font-size="195.0px" font-family="CMUBright-Bold" style="text-anchor:middle;fill:rgb(0,0,0);" transform="rotate(380.7,7595.9,1765.8)" >LG2</text>
<line x1='7217.8' y1='1357.0' x2='7221.6' y2='1342.5' style="stroke-width:2.0;stroke:rgb(0,0,0);stroke-linecap:round;fill:none;" />
<line x1='7388.3' y1='1405.2' x2='7391.2' y2='1395.6' style="stroke-width:2.0;stroke:rgb(0,0,0);stroke-linecap:round;fill:none;" />
<line x1='7557.0' y1='1459.5' x2='7561.9' y2='1445.4' style="stroke-width:2.0;stroke:rgb(0,0,0);stroke-linecap:round;fill:none;" />
<line x1='7723.5' y1='1520.1' x2='7727.1' y2='1510.8' style="stroke-width:2.0;stroke:rgb(0,0,0);stroke-linecap:round;fill:none;" />
<line x1='7887.7' y1='1586.8' x2='7893.6' y2='1573.0' style="stroke-width:2.0;stroke:rgb(0,0,0);stroke-linecap:round;fill:none;" />
<line x1='8049.4' y1='1659.5' x2='8053.6' y2='1650.4' style="stroke-width:2.0;stroke:rgb(0,0,0);stroke-linecap:round;fill:none;" />
<path d="M7198.757,1429.594 A4725.000,4725.000 40.000 0,1 8116.172,1775.377 L8149.762,1708.319 A4800.000,4800.000 0.000 0,0 7217.785,1357.048 Z" style="stroke-width:2.0;stroke:rgb(0,0,0);stroke-linecap:round;fill:none;" />
<path d="M8178.542,1807.199 A4725.000,4725.000 40.000 0,1 9150.983,2479.073 L9200.999,2423.185 A4800.000,4800.000 0.000 0,0 8213.122,1740.646 Z" style="stroke-width:2.0;stroke:rgb(0,0,0);stroke-linecap:round;fill:rgb(0,0,0);" />
<text x="8572.2" y="2277.2" font-size="195.0px" font-family="CMUBright-Bold" style="text-anchor:middle;fill:rgb(0,0,0);" transform="rotate(394.6,8572.2,2277.2)" >LG3</text>
<line x1='8213.1' y1='1740.6' x2='8220.0' y2='1727.3' style="stroke-width:2.0;stroke:rgb(0,0,0);stroke-linecap:round;fill:none;" />
<line x1='8368.8' y1='1825.2' x2='8373.8' y2='1816.5' style="stroke-width:2.0;stroke:rgb(0,0,0);stroke-linecap:round;fill:none;" />
<line x1='8521.3' y1='1915.5' x2='8529.2' y2='1902.8' style="stroke-width:2.0;stroke:rgb(0,0,0);stroke-linecap:round;fill:none;" />
<line x1='8670.4' y1='2011.4' x2='8675.9' y2='2003.1' style="stroke-width:2.0;stroke:rgb(0,0,0);stroke-linecap:round;fill:none;" />
<line x1='8815.8' y1='2112.7' x2='8824.6' y2='2100.5' style="stroke-width:2.0;stroke:rgb(0,0,0);stroke-linecap:round;fill:none;" />
<line x1='8957.4' y1='2219.3' x2='8963.5' y2='2211.4' style="stroke-width:2.0;stroke:rgb(0,0,0);stroke-linecap:round;fill:none;" />
<line x1='9094.9' y1='2331.0' x2='9104.6' y2='2319.5' style="stroke-width:2.0;stroke:rgb(0,0,0);stroke-linecap:round;fill:none;" />
<path d="M8178.542,1807.199 A4725.000,4725.000 40.000 0,1 9150.983,2479.073 L9200.999,2423.185 A4800.000,4800.000 0.000 0,0 8213.122,1740.646 Z" style="stroke-width:2.0;stroke:rgb(0,0,0);stroke-linecap:round;fill:none;" />
<path d="M9202.811,2526.151 A4725.000,4725.000 40.000 0,1 10042.114,3553.177 L10106.274,3514.339 A4800.000,4800.000 0.000 0,0 9253.650,2471.011 Z" style="stroke-width:2.0;stroke:rgb(0,0,0);stroke-linecap:round;fill:rgb(0,0,0);" />
<text x="9503.8" y="3136.6" font-size="195.0px" font-family="CMUBright-Bold" style="text-anchor:middle;fill:rgb(0,0,0);" transform="rotate(410.7,9503.8,3136.6)" >LG4</text>
<line x1='9253.6' y1='2471.0' x2='9263.8' y2='2460.0' style="stroke-width:2.0;stroke:rgb(0,0,0);stroke-linecap:round;fill:none;" />
<line x1='9381.7' y1='2593.5' x2='9388.7' y2='2586.4' style="stroke-width:2.0;stroke:rgb(0,0,0);stroke-linecap:round;fill:none;" />
<line x1='9505.1' y1='2720.7' x2='9516.1' y2='2710.4' style="stroke-width:2.0;stroke:rgb(0,0,0);stroke-linecap:round;fill:none;" />
<line x1='9623.8' y1='2852.3' x2='9631.4' y2='2845.7' style="stroke-width:2.0;stroke:rgb(0,0,0);stroke-linecap:round;fill:none;" />
<line x1='9737.5' y1='2988.2' x2='9749.2' y2='2978.8' style="stroke-width:2.0;stroke:rgb(0,0,0);stroke-linecap:round;fill:none;" />
<line x1='9846.2' y1='3128.2' x2='9854.2' y2='3122.2' style="stroke-width:2.0;stroke:rgb(0,0,0);stroke-linecap:round;fill:none;" />
<line x1='9949.5' y1='3272.2' x2='9961.9' y2='3263.6' style="stroke-width:2.0;stroke:rgb(0,0,0);stroke-linecap:round;fill:none;" />
<line x1='10047.5' y1='3419.8' x2='10056.0' y2='3414.4' style="stroke-width:2.0;stroke:rgb(0,0,0);stroke-linecap:round;fill:none;" />
<path d="M9202.811,2526.151 A4725.000,4725.000 40.000 0,1 10042.114,3553.177 L10106.274,3514.339 A4800.000,4800.000 0.000 0,0 9253.650,2471.011 Z" style="stroke-width:2.0;stroke:rgb(0,0,0);stroke-linecap:round;fill:none;" />
<path d="M10077.928,3613.343 A4725.000,4725.000 40.000 0,1 10536.922,4680.165 L10608.937,4659.215 A4800.000,4800.000 0.000 0,0 10142.657,3575.460 Z" style="stroke-width:2.0;stroke:rgb(0,0,0);stroke-linecap:round;fill:rgb(0,0,0);" />
<text x="10156.6" y="4211.6" font-size="195.0px" font-family="CMUBright-Bold" style="text-anchor:middle;fill:rgb(0,0,0);" transform="rotate(426.7,10156.6,4211.6)" >LG5</text>
<line x1='10142.7' y1='3575.5' x2='10155.6' y2='3567.9' style="stroke-width:2.0;stroke:rgb(0,0,0);stroke-linecap:round;fill:none;" />
<line x1='10229.3' y1='3730.0' x2='10238.1' y2='3725.3' style="stroke-width:2.0;stroke:rgb(0,0,0);stroke-linecap:round;fill:none;" />
<line x1='10310.2' y1='3887.7' x2='10323.7' y2='3881.1' style="stroke-width:2.0;stroke:rgb(0,0,0);stroke-linecap:round;fill:none;" />
<line x1='10385.3' y1='4048.2' x2='10394.4' y2='4044.2' style="stroke-width:2.0;stroke:rgb(0,0,0);stroke-linecap:round;fill:none;" />
<line x1='10454.3' y1='4211.4' x2='10468.3' y2='4205.9' style="stroke-width:2.0;stroke:rgb(0,0,0);stroke-linecap:round;fill:none;" />
<line x1='10517.3' y1='4377.1' x2='10526.7' y2='4373.7' style="stroke-width:2.0;stroke:rgb(0,0,0);stroke-linecap:round;fill:none;" />
<line x1='10574.1' y1='4544.9' x2='10588.4' y2='4540.4' style="stroke-width:2.0;stroke:rgb(0,0,0);stroke-linecap:round;fill:none;" />
<path d="M10077.928,3613.343 A4725.000,4725.000 40.000 0,1 10536.922,4680.165 L10608.937,4659.215 A4800.000,4800.000 0.000 0,0 10142.657,3575.460 Z" style="stroke-width:2.0;stroke:rgb(0,0,0);stroke-linecap:round;fill:none;" />
<path d="M10555.981,4747.539 A4725.000,4725.000 40.000 0,1 10724.916,5971.894 L10799.915,5971.448 A4800.000,4800.000 0.000 0,0 10628.299,4727.659 Z" style="stroke-width:2.0;stroke:rgb(0,0,0);stroke-linecap:round;fill:rgb(0,0,0);" />
<text x="10482.5" y="5381.5" font-size="195.0px" font-family="CMUBright-Bold" style="text-anchor:middle;fill:rgb(0,0,0);" transform="rotate(442.1,10482.5,5381.5)" >LG6</text>
<line x1='10628.3' y1='4727.7' x2='10642.8' y2='4723.7' style="stroke-width:2.0;stroke:rgb(0,0,0);stroke-linecap:round;fill:none;" />
<line x1='10672.1' y1='4899.4' x2='10681.8' y2='4897.1' style="stroke-width:2.0;stroke:rgb(0,0,0);stroke-linecap:round;fill:none;" />
<line x1='10709.6' y1='5072.6' x2='10724.3' y2='5069.7' style="stroke-width:2.0;stroke:rgb(0,0,0);stroke-linecap:round;fill:none;" />
<line x1='10740.6' y1='5247.1' x2='10750.5' y2='5245.5' style="stroke-width:2.0;stroke:rgb(0,0,0);stroke-linecap:round;fill:none;" />
<line x1='10765.1' y1='5422.6' x2='10780.0' y2='5420.8' style="stroke-width:2.0;stroke:rgb(0,0,0);stroke-linecap:round;fill:none;" />
<line x1='10783.2' y1='5598.9' x2='10793.2' y2='5598.0' style="stroke-width:2.0;stroke:rgb(0,0,0);stroke-linecap:round;fill:none;" />
<line x1='10794.8' y1='5775.7' x2='10809.7' y2='5775.0' style="stroke-width:2.0;stroke:rgb(0,0,0);stroke-linecap:round;fill:none;" />
<line x1='10799.8' y1='5952.8' x2='10809.8' y2='5952.7' style="stroke-width:2.0;stroke:rgb(0,0,0);stroke-linecap:round;fill:none;" />
<path d="M10555.981,4747.539 A4725.000,4725.000 40.000 0,1 10724.916,5971.894 L10799.915,5971.448 A4800.000,4800.000 0.000 0,0 10628.299,4727.659 Z" style="stroke-width:2.0;stroke:rgb(0,0,0);stroke-linecap:round;fill:none;" />
<path d="M10724.814,6041.912 A4725.000,4725.000 40.000 0,1 10611.317,7030.234 L10684.512,7046.587 A4800.000,4800.000 0.000 0,0 10799.811,6042.578 Z" style="stroke-width:2.0;stroke:rgb(0,0,0);stroke-linecap:round;fill:rgb(0,0,0);" />
<text x="10643.5" y="6533.2" font-size="195.0px" font-family="CMUBright-Bold" style="text-anchor:middle;fill:rgb(0,0,0);" transform="rotate(-83.4,10643.5,6533.2)" >LG7</text>
<line x1='10799.8' y1='6042.6' x2='10814.8' y2='6042.7' style="stroke-width:2.0;stroke:rgb(0,0,0);stroke-linecap:round;fill:none;" />
<line x1='10795.0' y1='6219.7' x2='10805.0' y2='6220.2' style="stroke-width:2.0;stroke:rgb(0,0,0);stroke-linecap:round;fill:none;" />
<line x1='10783.6' y1='6396.6' x2='10798.5' y2='6397.8' style="stroke-width:2.0;stroke:rgb(0,0,0);stroke-linecap:round;fill:none;" />
<line x1='10765.7' y1='6572.9' x2='10775.6' y2='6574.1' style="stroke-width:2.0;stroke:rgb(0,0,0);stroke-linecap:round;fill:none;" />
<line x1='10741.3' y1='6748.4' x2='10756.1' y2='6750.7' style="stroke-width:2.0;stroke:rgb(0,0,0);stroke-linecap:round;fill:none;" />
<line x1='10710.4' y1='6922.9' x2='10720.3' y2='6924.8' style="stroke-width:2.0;stroke:rgb(0,0,0);stroke-linecap:round;fill:none;" />
<path d="M10724.814,6041.912 A4725.000,4725.000 40.000 0,1 10611.317,7030.234 L10684.512,7046.587 A4800.000,4800.000 0.000 0,0 10799.811,6042.578 Z" style="stroke-width:2.0;stroke:rgb(0,0,0);stroke-linecap:round;fill:none;" />
<path d="M10595.544,7098.453 A4725.000,4725.000 40.000 0,1 10140.754,8275.913 L10206.480,8312.039 A4800.000,4800.000 0.000 0,0 10668.489,7115.888 Z" style="stroke-width:2.0;stroke:rgb(0,0,0);stroke-linecap:round;fill:rgb(0,0,0);" />
<text x="10360.1" y="7684.1" font-size="195.0px" font-family="CMUBright-Bold" style="text-anchor:middle;fill:rgb(0,0,0);" transform="rotate(-68.9,10360.1,7684.1)" >LG8</text>
<line x1='10668.5' y1='7115.9' x2='10683.1' y2='7119.4' style="stroke-width:2.0;stroke:rgb(0,0,0);stroke-linecap:round;fill:none;" />
<line x1='10624.1' y1='7287.5' x2='10633.8' y2='7290.1' style="stroke-width:2.0;stroke:rgb(0,0,0);stroke-linecap:round;fill:none;" />
<line x1='10573.4' y1='7457.3' x2='10587.7' y2='7461.8' style="stroke-width:2.0;stroke:rgb(0,0,0);stroke-linecap:round;fill:none;" />
<line x1='10516.5' y1='7625.1' x2='10525.9' y2='7628.5' style="stroke-width:2.0;stroke:rgb(0,0,0);stroke-linecap:round;fill:none;" />
<line x1='10453.5' y1='7790.7' x2='10467.4' y2='7796.3' style="stroke-width:2.0;stroke:rgb(0,0,0);stroke-linecap:round;fill:none;" />
<line x1='10384.3' y1='7953.9' x2='10393.5' y2='7958.0' style="stroke-width:2.0;stroke:rgb(0,0,0);stroke-linecap:round;fill:none;" />
<line x1='10309.2' y1='8114.4' x2='10322.7' y2='8121.0' style="stroke-width:2.0;stroke:rgb(0,0,0);stroke-linecap:round;fill:none;" />
<line x1='10228.2' y1='8272.0' x2='10237.0' y2='8276.8' style="stroke-width:2.0;stroke:rgb(0,0,0);stroke-linecap:round;fill:none;" />
<path d="M10595.544,7098.453 A4725.000,4725.000 40.000 0,1 10140.754,8275.913 L10206.480,8312.039 A4800.000,4800.000 0.000 0,0 10668.489,7115.888 Z" style="stroke-width:2.0;stroke:rgb(0,0,0);stroke-linecap:round;fill:none;" />
<path d="M10106.574,8337.022 A4725.000,4725.000 40.000 0,1 9267.131,9413.427 L9318.990,9467.608 A4800.000,4800.000 0.000 0,0 10171.758,8374.118 Z" style="stroke-width:2.0;stroke:rgb(0,0,0);stroke-linecap:round;fill:rgb(0,0,0);" />
<text x="9685.7" y="8874.3" font-size="195.0px" font-family="CMUBright-Bold" style="text-anchor:middle;fill:rgb(0,0,0);" transform="rotate(-52.1,9685.7,8874.3)" >LG9</text>
<line x1='10171.8' y1='8374.1' x2='10184.8' y2='8381.5' style="stroke-width:2.0;stroke:rgb(0,0,0);stroke-linecap:round;fill:none;" />
<line x1='10081.3' y1='8526.5' x2='10089.8' y2='8531.8' style="stroke-width:2.0;stroke:rgb(0,0,0);stroke-linecap:round;fill:none;" />
<line x1='9985.2' y1='8675.4' x2='9997.7' y2='8683.8' style="stroke-width:2.0;stroke:rgb(0,0,0);stroke-linecap:round;fill:none;" />
<line x1='9883.8' y1='8820.7' x2='9891.9' y2='8826.6' style="stroke-width:2.0;stroke:rgb(0,0,0);stroke-linecap:round;fill:none;" />
<line x1='9777.0' y1='8962.2' x2='9788.8' y2='8971.4' style="stroke-width:2.0;stroke:rgb(0,0,0);stroke-linecap:round;fill:none;" />
<line x1='9665.1' y1='9099.6' x2='9672.7' y2='9106.0' style="stroke-width:2.0;stroke:rgb(0,0,0);stroke-linecap:round;fill:none;" />
<line x1='9548.2' y1='9232.7' x2='9559.2' y2='9242.8' style="stroke-width:2.0;stroke:rgb(0,0,0);stroke-linecap:round;fill:none;" />
<line x1='9426.4' y1='9361.5' x2='9433.6' y2='9368.5' style="stroke-width:2.0;stroke:rgb(0,0,0);stroke-linecap:round;fill:none;" />
<path d="M10106.574,8337.022 A4725.000,4725.000 40.000 0,1 9267.131,9413.427 L9318.990,9467.608 A4800.000,4800.000 0.000 0,0 10171.758,8374.118 Z" style="stroke-width:2.0;stroke:rgb(0,0,0);stroke-linecap:round;fill:none;" />
<path d="M9216.191,9461.465 A4725.000,4725.000 40.000 0,1 8287.976,10134.101 L8324.293,10199.722 A4800.000,4800.000 0.000 0,0 9267.242,9516.409 Z" style="stroke-width:2.0;stroke:rgb(0,0,0);stroke-linecap:round;fill:rgb(0,0,0);" />
<text x="8742.6" y="9784.7" font-size="195.0px" font-family="CMUBright-Bold" style="text-anchor:middle;fill:rgb(0,0,0);" transform="rotate(-35.9,8742.6,9784.7)" >LG10</text>
<line x1='9267.2' y1='9516.4' x2='9277.5' y2='9527.4' style="stroke-width:2.0;stroke:rgb(0,0,0);stroke-linecap:round;fill:none;" />
<line x1='9135.2' y1='9634.6' x2='9141.7' y2='9642.2' style="stroke-width:2.0;stroke:rgb(0,0,0);stroke-linecap:round;fill:none;" />
<line x1='8998.9' y1='9747.9' x2='9008.3' y2='9759.6' style="stroke-width:2.0;stroke:rgb(0,0,0);stroke-linecap:round;fill:none;" />
<line x1='8858.5' y1='9856.0' x2='8864.5' y2='9864.1' style="stroke-width:2.0;stroke:rgb(0,0,0);stroke-linecap:round;fill:none;" />
<line x1='8714.2' y1='9958.9' x2='8722.7' y2='9971.3' style="stroke-width:2.0;stroke:rgb(0,0,0);stroke-linecap:round;fill:none;" />
<line x1='8566.2' y1='10056.4' x2='8571.6' y2='10064.9' style="stroke-width:2.0;stroke:rgb(0,0,0);stroke-linecap:round;fill:none;" />
<line x1='8414.8' y1='10148.4' x2='8422.3' y2='10161.3' style="stroke-width:2.0;stroke:rgb(0,0,0);stroke-linecap:round;fill:none;" />
<path d="M9216.191,9461.465 A4725.000,4725.000 40.000 0,1 8287.976,10134.101 L8324.293,10199.722 A4800.000,4800.000 0.000 0,0 9267.242,9516.409 Z" style="stroke-width:2.0;stroke:rgb(0,0,0);stroke-linecap:round;fill:none;" />
<path d="M8226.465,10167.551 A4725.000,4725.000 40.000 0,1 7155.650,10581.495 L7173.993,10654.217 A4800.000,4800.000 0.000 0,0 8261.805,10233.703 Z" style="stroke-width:2.0;stroke:rgb(0,0,0);stroke-linecap:round;fill:rgb(0,0,0);" />
<text x="7685.3" y="10359.6" font-size="195.0px" font-family="CMUBright-Bold" style="text-anchor:middle;fill:rgb(0,0,0);" transform="rotate(-21.1,7685.3,10359.6)" >LG11</text>
<line x1='8261.8' y1='10233.7' x2='8268.9' y2='10246.9' style="stroke-width:2.0;stroke:rgb(0,0,0);stroke-linecap:round;fill:none;" />
<line x1='8104.0' y1='10314.3' x2='8108.4' y2='10323.3' style="stroke-width:2.0;stroke:rgb(0,0,0);stroke-linecap:round;fill:none;" />
<line x1='7943.3' y1='10389.0' x2='7949.4' y2='10402.7' style="stroke-width:2.0;stroke:rgb(0,0,0);stroke-linecap:round;fill:none;" />
<line x1='7780.0' y1='10457.8' x2='7783.7' y2='10467.1' style="stroke-width:2.0;stroke:rgb(0,0,0);stroke-linecap:round;fill:none;" />
<line x1='7614.2' y1='10520.4' x2='7619.2' y2='10534.6' style="stroke-width:2.0;stroke:rgb(0,0,0);stroke-linecap:round;fill:none;" />
<line x1='7446.2' y1='10576.9' x2='7449.2' y2='10586.5' style="stroke-width:2.0;stroke:rgb(0,0,0);stroke-linecap:round;fill:none;" />
<line x1='7276.3' y1='10627.2' x2='7280.3' y2='10641.7' style="stroke-width:2.0;stroke:rgb(0,0,0);stroke-linecap:round;fill:none;" />
<path d="M8226.465,10167.551 A4725.000,4725.000 40.000 0,1 7155.650,10581.495 L7173.993,10654.217 A4800.000,4800.000 0.000 0,0 8261.805,10233.703 Z" style="stroke-width:2.0;stroke:rgb(0,0,0);stroke-linecap:round;fill:none;" />
<path d="M7087.633,10598.117 A4725.000,4725.000 40.000 0,1 5862.524,10723.000 L5860.342,10797.968 A4800.000,4800.000 0.000 0,0 7104.897,10671.103 Z" style="stroke-width:2.0;stroke:rgb(0,0,0);stroke-linecap:round;fill:rgb(0,0,0);" />
<text x="6474.0" y="10649.9" font-size="195.0px" font-family="CMUBright-Bold" style="text-anchor:middle;fill:rgb(0,0,0);" transform="rotate(-5.8,6474.0,10649.9)" >LG12</text>
<line x1='7104.9' y1='10671.1' x2='7108.3' y2='10685.7' style="stroke-width:2.0;stroke:rgb(0,0,0);stroke-linecap:round;fill:none;" />
<line x1='6931.7' y1='10708.7' x2='6933.7' y2='10718.5' style="stroke-width:2.0;stroke:rgb(0,0,0);stroke-linecap:round;fill:none;" />
<line x1='6757.3' y1='10739.9' x2='6759.6' y2='10754.7' style="stroke-width:2.0;stroke:rgb(0,0,0);stroke-linecap:round;fill:none;" />
<line x1='6581.8' y1='10764.6' x2='6583.0' y2='10774.5' style="stroke-width:2.0;stroke:rgb(0,0,0);stroke-linecap:round;fill:none;" />
<line x1='6405.5' y1='10782.8' x2='6406.8' y2='10797.8' style="stroke-width:2.0;stroke:rgb(0,0,0);stroke-linecap:round;fill:none;" />
<line x1='6228.7' y1='10794.5' x2='6229.2' y2='10804.5' style="stroke-width:2.0;stroke:rgb(0,0,0);stroke-linecap:round;fill:none;" />
<line x1='6051.5' y1='10799.7' x2='6051.7' y2='10814.7' style="stroke-width:2.0;stroke:rgb(0,0,0);stroke-linecap:round;fill:none;" />
<line x1='5874.3' y1='10798.4' x2='5874.1' y2='10808.4' style="stroke-width:2.0;stroke:rgb(0,0,0);stroke-linecap:round;fill:none;" />
<path d="M7087.633,10598.117 A4725.000,4725.000 40.000 0,1 5862.524,10723.000 L5860.342,10797.968 A4800.000,4800.000 0.000 0,0 7104.897,10671.103 Z" style="stroke-width:2.0;stroke:rgb(0,0,0);stroke-linecap:round;fill:none;" />
<path d="M5792.552,10720.444 A4725.000,4725.000 40.000 0,1 4687.364,10539.010 L4666.528,10611.058 A4800.000,4800.000 0.000 0,0 5789.259,10795.372 Z" style="stroke-width:2.0;stroke:rgb(0,0,0);stroke-linecap:round;fill:rgb(0,0,0);" />
<text x="5242.8" y="10612.3" font-size="195.0px" font-family="CMUBright-Bold" style="text-anchor:middle;fill:rgb(0,0,0);" transform="rotate(9.3,5242.8,10612.3)" >LG13</text>
<line x1='5789.3' y1='10795.4' x2='5788.6' y2='10810.4' style="stroke-width:2.0;stroke:rgb(0,0,0);stroke-linecap:round;fill:none;" />
<line x1='5612.4' y1='10784.3' x2='5611.6' y2='10794.3' style="stroke-width:2.0;stroke:rgb(0,0,0);stroke-linecap:round;fill:none;" />
<line x1='5436.0' y1='10766.8' x2='5434.3' y2='10781.7' style="stroke-width:2.0;stroke:rgb(0,0,0);stroke-linecap:round;fill:none;" />
<line x1='5260.5' y1='10742.7' x2='5258.9' y2='10752.6' style="stroke-width:2.0;stroke:rgb(0,0,0);stroke-linecap:round;fill:none;" />
<line x1='5085.9' y1='10712.2' x2='5083.1' y2='10726.9' style="stroke-width:2.0;stroke:rgb(0,0,0);stroke-linecap:round;fill:none;" />
<line x1='4912.6' y1='10675.2' x2='4910.3' y2='10684.9' style="stroke-width:2.0;stroke:rgb(0,0,0);stroke-linecap:round;fill:none;" />
<line x1='4740.8' y1='10631.9' x2='4736.8' y2='10646.4' style="stroke-width:2.0;stroke:rgb(0,0,0);stroke-linecap:round;fill:none;" />
<path d="M5792.552,10720.444 A4725.000,4725.000 40.000 0,1 4687.364,10539.010 L4666.528,10611.058 A4800.000,4800.000 0.000 0,0 5789.259,10795.372 Z" style="stroke-width:2.0;stroke:rgb(0,0,0);stroke-linecap:round;fill:none;" />
<path d="M4620.247,10519.061 A4725.000,4725.000 40.000 0,1 3764.825,10162.886 L3729.346,10228.963 A4800.000,4800.000 0.000 0,0 4598.347,10590.792 Z" style="stroke-width:2.0;stroke:rgb(0,0,0);stroke-linecap:round;fill:rgb(0,0,0);" />
<text x="4203.4" y="10314.9" font-size="195.0px" font-family="CMUBright-Bold" style="text-anchor:middle;fill:rgb(0,0,0);" transform="rotate(22.6,4203.4,10314.9)" >LG14</text>
<line x1='4598.3' y1='10590.8' x2='4594.0' y2='10605.1' style="stroke-width:2.0;stroke:rgb(0,0,0);stroke-linecap:round;fill:none;" />
<line x1='4429.8' y1='10535.9' x2='4426.6' y2='10545.4' style="stroke-width:2.0;stroke:rgb(0,0,0);stroke-linecap:round;fill:none;" />
<line x1='4263.5' y1='10474.9' x2='4258.0' y2='10488.9' style="stroke-width:2.0;stroke:rgb(0,0,0);stroke-linecap:round;fill:none;" />
<line x1='4099.5' y1='10407.7' x2='4095.5' y2='10416.9' style="stroke-width:2.0;stroke:rgb(0,0,0);stroke-linecap:round;fill:none;" />
<line x1='3938.1' y1='10334.6' x2='3931.6' y2='10348.1' style="stroke-width:2.0;stroke:rgb(0,0,0);stroke-linecap:round;fill:none;" />
<line x1='3779.5' y1='10255.5' x2='3774.8' y2='10264.4' style="stroke-width:2.0;stroke:rgb(0,0,0);stroke-linecap:round;fill:none;" />
<path d="M4620.247,10519.061 A4725.000,4725.000 40.000 0,1 3764.825,10162.886 L3729.346,10228.963 A4800.000,4800.000 0.000 0,0 4598.347,10590.792 Z" style="stroke-width:2.0;stroke:rgb(0,0,0);stroke-linecap:round;fill:none;" />
<path d="M3703.383,10129.307 A4725.000,4725.000 40.000 0,1 2670.008,9352.130 L2617.151,9405.339 A4800.000,4800.000 0.000 0,0 3666.929,10194.852 Z" style="stroke-width:2.0;stroke:rgb(0,0,0);stroke-linecap:round;fill:rgb(0,0,0);" />
<text x="3190.6" y="9735.5" font-size="195.0px" font-family="CMUBright-Bold" style="text-anchor:middle;fill:rgb(0,0,0);" transform="rotate(36.9,3190.6,9735.5)" >LG15</text>
<line x1='3666.9' y1='10194.9' x2='3659.6' y2='10208.0' style="stroke-width:2.0;stroke:rgb(0,0,0);stroke-linecap:round;fill:none;" />
<line x1='3513.7' y1='10105.9' x2='3508.5' y2='10114.4' style="stroke-width:2.0;stroke:rgb(0,0,0);stroke-linecap:round;fill:none;" />
<line x1='3363.8' y1='10011.3' x2='3355.6' y2='10023.8' style="stroke-width:2.0;stroke:rgb(0,0,0);stroke-linecap:round;fill:none;" />
<line x1='3217.5' y1='9911.2' x2='3211.7' y2='9919.4' style="stroke-width:2.0;stroke:rgb(0,0,0);stroke-linecap:round;fill:none;" />
<line x1='3075.1' y1='9805.9' x2='3065.9' y2='9817.8' style="stroke-width:2.0;stroke:rgb(0,0,0);stroke-linecap:round;fill:none;" />
<line x1='2936.6' y1='9695.3' x2='2930.2' y2='9703.0' style="stroke-width:2.0;stroke:rgb(0,0,0);stroke-linecap:round;fill:none;" />
<line x1='2802.2' y1='9579.7' x2='2792.2' y2='9590.9' style="stroke-width:2.0;stroke:rgb(0,0,0);stroke-linecap:round;fill:none;" />
<line x1='2672.3' y1='9459.2' x2='2665.3' y2='9466.4' style="stroke-width:2.0;stroke:rgb(0,0,0);stroke-linecap:round;fill:none;" />
<path d="M3703.383,10129.307 A4725.000,4725.000 40.000 0,1 2670.008,9352.130 L2617.151,9405.339 A4800.000,4800.000 0.000 0,0 3666.929,10194.852 Z" style="stroke-width:2.0;stroke:rgb(0,0,0);stroke-linecap:round;fill:none;" />
<path d="M2620.701,9302.418 A4725.000,4725.000 40.000 0,1 1904.199,8355.853 L1839.187,8393.247 A4800.000,4800.000 0.000 0,0 2567.061,9354.837 Z" style="stroke-width:2.0;stroke:rgb(0,0,0);stroke-linecap:round;fill:rgb(0,0,0);" />
<text x="2273.3" y="8820.9" font-size="195.0px" font-family="CMUBright-Bold" style="text-anchor:middle;fill:rgb(0,0,0);" transform="rotate(52.9,2273.3,8820.9)" >LG16</text>
<line x1='2567.1' y1='9354.8' x2='2556.3' y2='9365.3' style="stroke-width:2.0;stroke:rgb(0,0,0);stroke-linecap:round;fill:none;" />
<line x1='2445.6' y1='9225.8' x2='2438.2' y2='9232.5' style="stroke-width:2.0;stroke:rgb(0,0,0);stroke-linecap:round;fill:none;" />
<line x1='2328.9' y1='9092.4' x2='2317.4' y2='9102.1' style="stroke-width:2.0;stroke:rgb(0,0,0);stroke-linecap:round;fill:none;" />
<line x1='2217.3' y1='8954.8' x2='2209.4' y2='8961.0' style="stroke-width:2.0;stroke:rgb(0,0,0);stroke-linecap:round;fill:none;" />
<line x1='2110.8' y1='8813.2' x2='2098.6' y2='8821.9' style="stroke-width:2.0;stroke:rgb(0,0,0);stroke-linecap:round;fill:none;" />
<line x1='2009.6' y1='8667.7' x2='2001.3' y2='8673.2' style="stroke-width:2.0;stroke:rgb(0,0,0);stroke-linecap:round;fill:none;" />
<line x1='1913.8' y1='8518.6' x2='1901.0' y2='8526.4' style="stroke-width:2.0;stroke:rgb(0,0,0);stroke-linecap:round;fill:none;" />
<path d="M2620.701,9302.418 A4725.000,4725.000 40.000 0,1 1904.199,8355.853 L1839.187,8393.247 A4800.000,4800.000 0.000 0,0 2567.061,9354.837 Z" style="stroke-width:2.0;stroke:rgb(0,0,0);stroke-linecap:round;fill:none;" />
<path d="M1869.739,8294.902 A4725.000,4725.000 40.000 0,1 1462.567,7318.076 L1390.544,7338.998 A4800.000,4800.000 0.000 0,0 1804.180,8331.329 Z" style="stroke-width:2.0;stroke:rgb(0,0,0);stroke-linecap:round;fill:rgb(0,0,0);" />
<text x="1685.8" y="7798.3" font-size="195.0px" font-family="CMUBright-Bold" style="text-anchor:middle;fill:rgb(0,0,0);" transform="rotate(67.4,1685.8,7798.3)" >LG17</text>
<line x1='1804.2' y1='8331.3' x2='1791.1' y2='8338.6' style="stroke-width:2.0;stroke:rgb(0,0,0);stroke-linecap:round;fill:none;" />
<line x1='1721.0' y1='8174.9' x2='1712.1' y2='8179.4' style="stroke-width:2.0;stroke:rgb(0,0,0);stroke-linecap:round;fill:none;" />
<line x1='1643.6' y1='8015.4' x2='1630.0' y2='8021.7' style="stroke-width:2.0;stroke:rgb(0,0,0);stroke-linecap:round;fill:none;" />
<line x1='1572.2' y1='7853.2' x2='1563.0' y2='7857.1' style="stroke-width:2.0;stroke:rgb(0,0,0);stroke-linecap:round;fill:none;" />
<line x1='1506.8' y1='7688.5' x2='1492.8' y2='7693.8' style="stroke-width:2.0;stroke:rgb(0,0,0);stroke-linecap:round;fill:none;" />
<line x1='1447.5' y1='7521.5' x2='1438.0' y2='7524.7' style="stroke-width:2.0;stroke:rgb(0,0,0);stroke-linecap:round;fill:none;" />
<line x1='1394.5' y1='7352.4' x2='1380.1' y2='7356.7' style="stroke-width:2.0;stroke:rgb(0,0,0);stroke-linecap:round;fill:none;" />
<path d="M1869.739,8294.902 A4725.000,4725.000 40.000 0,1 1462.567,7318.076 L1390.544,7338.998 A4800.000,4800.000 0.000 0,0 1804.180,8331.329 Z" style="stroke-width:2.0;stroke:rgb(0,0,0);stroke-linecap:round;fill:none;" />
<path d="M1443.533,7250.694 A4725.000,4725.000 40.000 0,1 1275.033,6017.552 L1200.033,6017.830 A4800.000,4800.000 0.000 0,0 1371.208,7270.547 Z" style="stroke-width:2.0;stroke:rgb(0,0,0);stroke-linecap:round;fill:rgb(0,0,0);" />
<text x="1369.0" y="6632.8" font-size="195.0px" font-family="CMUBright-Bold" style="text-anchor:middle;fill:rgb(0,0,0);" transform="rotate(82.2,1369.0,6632.8)" >LG18</text>
<line x1='1371.2' y1='7270.5' x2='1356.7' y2='7274.5' style="stroke-width:2.0;stroke:rgb(0,0,0);stroke-linecap:round;fill:none;" />
<line x1='1327.5' y1='7098.8' x2='1317.7' y2='7101.1' style="stroke-width:2.0;stroke:rgb(0,0,0);stroke-linecap:round;fill:none;" />
<line x1='1290.1' y1='6925.6' x2='1275.4' y2='6928.5' style="stroke-width:2.0;stroke:rgb(0,0,0);stroke-linecap:round;fill:none;" />
<line x1='1259.1' y1='6751.1' x2='1249.3' y2='6752.7' style="stroke-width:2.0;stroke:rgb(0,0,0);stroke-linecap:round;fill:none;" />
<line x1='1234.6' y1='6575.6' x2='1219.7' y2='6577.4' style="stroke-width:2.0;stroke:rgb(0,0,0);stroke-linecap:round;fill:none;" />
<line x1='1216.6' y1='6399.3' x2='1206.7' y2='6400.1' style="stroke-width:2.0;stroke:rgb(0,0,0);stroke-linecap:round;fill:none;" />
<line x1='1205.2' y1='6222.4' x2='1190.2' y2='6223.1' style="stroke-width:2.0;stroke:rgb(0,0,0);stroke-linecap:round;fill:none;" />
<line x1='1200.2' y1='6045.3' x2='1190.2' y2='6045.4' style="stroke-width:2.0;stroke:rgb(0,0,0);stroke-linecap:round;fill:none;" />
<path d="M1443.533,7250.694 A4725.000,4725.000 40.000 0,1 1275.033,6017.552 L1200.033,6017.830 A4800.000,4800.000 0.000 0,0 1371.208,7270.547 Z" style="stroke-width:2.0;stroke:rgb(0,0,0);stroke-linecap:round;fill:none;" />
<path d="M1275.291,5947.534 A4725.000,4725.000 40.000 0,1 1394.401,4944.498 L1321.296,4927.744 A4800.000,4800.000 0.000 0,0 1200.296,5946.701 Z" style="stroke-width:2.0;stroke:rgb(0,0,0);stroke-linecap:round;fill:rgb(0,0,0);" />
<text x="1506.6" y="5466.4" font-size="195.0px" font-family="CMUBright-Bold" style="text-anchor:middle;fill:rgb(0,0,0);" transform="rotate(-83.2,1506.6,5466.4)" >LG19</text>
<line x1='1200.3' y1='5946.7' x2='1185.3' y2='5946.5' style="stroke-width:2.0;stroke:rgb(0,0,0);stroke-linecap:round;fill:none;" />
<line x1='1205.5' y1='5769.6' x2='1195.5' y2='5769.1' style="stroke-width:2.0;stroke:rgb(0,0,0);stroke-linecap:round;fill:none;" />
<line x1='1217.3' y1='5592.7' x2='1202.4' y2='5591.5' style="stroke-width:2.0;stroke:rgb(0,0,0);stroke-linecap:round;fill:none;" />
<line x1='1235.6' y1='5416.5' x2='1225.7' y2='5415.3' style="stroke-width:2.0;stroke:rgb(0,0,0);stroke-linecap:round;fill:none;" />
<line x1='1260.4' y1='5241.0' x2='1245.6' y2='5238.6' style="stroke-width:2.0;stroke:rgb(0,0,0);stroke-linecap:round;fill:none;" />
<line x1='1291.6' y1='5066.6' x2='1281.8' y2='5064.6' style="stroke-width:2.0;stroke:rgb(0,0,0);stroke-linecap:round;fill:none;" />
<path d="M1275.291,5947.534 A4725.000,4725.000 40.000 0,1 1394.401,4944.498 L1321.296,4927.744 A4800.000,4800.000 0.000 0,0 1200.296,5946.701 Z" style="stroke-width:2.0;stroke:rgb(0,0,0);stroke-linecap:round;fill:none;" />
<path d="M1410.547,4876.367 A4725.000,4725.000 40.000 0,1 1850.162,3740.693 L1784.291,3704.831 A4800.000,4800.000 0.000 0,0 1337.699,4858.532 Z" style="stroke-width:2.0;stroke:rgb(0,0,0);stroke-linecap:round;fill:rgb(0,0,0);" />
<text x="1780.1" y="4366.5" font-size="195.0px" font-family="CMUBright-Bold" style="text-anchor:middle;fill:rgb(0,0,0);" transform="rotate(-68.8,1780.1,4366.5)" >LG20</text>
<line x1='1337.7' y1='4858.5' x2='1323.1' y2='4855.0' style="stroke-width:2.0;stroke:rgb(0,0,0);stroke-linecap:round;fill:none;" />
<line x1='1383.0' y1='4687.2' x2='1373.4' y2='4684.5' style="stroke-width:2.0;stroke:rgb(0,0,0);stroke-linecap:round;fill:none;" />
<line x1='1434.6' y1='4517.7' x2='1420.4' y2='4513.0' style="stroke-width:2.0;stroke:rgb(0,0,0);stroke-linecap:round;fill:none;" />
<line x1='1492.4' y1='4350.2' x2='1483.1' y2='4346.7' style="stroke-width:2.0;stroke:rgb(0,0,0);stroke-linecap:round;fill:none;" />
<line x1='1556.4' y1='4184.9' x2='1542.5' y2='4179.2' style="stroke-width:2.0;stroke:rgb(0,0,0);stroke-linecap:round;fill:none;" />
<line x1='1626.5' y1='4022.1' x2='1617.3' y2='4018.0' style="stroke-width:2.0;stroke:rgb(0,0,0);stroke-linecap:round;fill:none;" />
<line x1='1702.4' y1='3862.0' x2='1689.0' y2='3855.3' style="stroke-width:2.0;stroke:rgb(0,0,0);stroke-linecap:round;fill:none;" />
<line x1='1784.3' y1='3704.8' x2='1775.5' y2='3700.0' style="stroke-width:2.0;stroke:rgb(0,0,0);stroke-linecap:round;fill:none;" />
<path d="M1410.547,4876.367 A4725.000,4725.000 40.000 0,1 1850.162,3740.693 L1784.291,3704.831 A4800.000,4800.000 0.000 0,0 1337.699,4858.532 Z" style="stroke-width:2.0;stroke:rgb(0,0,0);stroke-linecap:round;fill:none;" />
<path d="M1884.097,3679.447 A4725.000,4725.000 40.000 0,1 2545.774,2776.035 L2490.945,2724.861 A4800.000,4800.000 0.000 0,0 1818.765,3642.613 Z" style="stroke-width:2.0;stroke:rgb(0,0,0);stroke-linecap:round;fill:rgb(0,0,0);" />
<text x="2349.4" y="3326.2" font-size="195.0px" font-family="CMUBright-Bold" style="text-anchor:middle;fill:rgb(0,0,0);" transform="rotate(-53.8,2349.4,3326.2)" >LG21</text>
<line x1='1818.8' y1='3642.6' x2='1805.7' y2='3635.2' style="stroke-width:2.0;stroke:rgb(0,0,0);stroke-linecap:round;fill:none;" />
<line x1='1908.6' y1='3489.9' x2='1900.1' y2='3484.6' style="stroke-width:2.0;stroke:rgb(0,0,0);stroke-linecap:round;fill:none;" />
<line x1='2004.1' y1='3340.6' x2='1991.6' y2='3332.3' style="stroke-width:2.0;stroke:rgb(0,0,0);stroke-linecap:round;fill:none;" />
<line x1='2105.0' y1='3194.9' x2='2096.9' y2='3189.0' style="stroke-width:2.0;stroke:rgb(0,0,0);stroke-linecap:round;fill:none;" />
<line x1='2211.2' y1='3053.0' x2='2199.3' y2='3043.8' style="stroke-width:2.0;stroke:rgb(0,0,0);stroke-linecap:round;fill:none;" />
<line x1='2322.5' y1='2915.2' x2='2314.9' y2='2908.7' style="stroke-width:2.0;stroke:rgb(0,0,0);stroke-linecap:round;fill:none;" />
<line x1='2438.9' y1='2781.5' x2='2427.8' y2='2771.5' style="stroke-width:2.0;stroke:rgb(0,0,0);stroke-linecap:round;fill:none;" />
<path d="M1884.097,3679.447 A4725.000,4725.000 40.000 0,1 2545.774,2776.035 L2490.945,2724.861 A4800.000,4800.000 0.000 0,0 1818.765,3642.613 Z" style="stroke-width:2.0;stroke:rgb(0,0,0);stroke-linecap:round;fill:none;" />
<path d="M2593.927,2725.203 A4725.000,4725.000 40.000 0,1 3632.852,1910.717 L3595.278,1845.808 A4800.000,4800.000 0.000 0,0 2539.863,2673.222 Z" style="stroke-width:2.0;stroke:rgb(0,0,0);stroke-linecap:round;fill:rgb(0,0,0);" />
<text x="3208.2" y="2438.9" font-size="195.0px" font-family="CMUBright-Bold" style="text-anchor:middle;fill:rgb(0,0,0);" transform="rotate(-38.1,3208.2,2438.9)" >LG22</text>
<line x1='2539.9' y1='2673.2' x2='2529.0' y2='2662.8' style="stroke-width:2.0;stroke:rgb(0,0,0);stroke-linecap:round;fill:none;" />
<line x1='2665.0' y1='2547.8' x2='2658.1' y2='2540.6' style="stroke-width:2.0;stroke:rgb(0,0,0);stroke-linecap:round;fill:none;" />
<line x1='2794.7' y1='2427.0' x2='2784.7' y2='2415.8' style="stroke-width:2.0;stroke:rgb(0,0,0);stroke-linecap:round;fill:none;" />
<line x1='2928.8' y1='2311.1' x2='2922.4' y2='2303.4' style="stroke-width:2.0;stroke:rgb(0,0,0);stroke-linecap:round;fill:none;" />
<line x1='3067.1' y1='2200.3' x2='3057.9' y2='2188.4' style="stroke-width:2.0;stroke:rgb(0,0,0);stroke-linecap:round;fill:none;" />
<line x1='3209.3' y1='2094.6' x2='3203.5' y2='2086.5' style="stroke-width:2.0;stroke:rgb(0,0,0);stroke-linecap:round;fill:none;" />
<line x1='3355.4' y1='1994.2' x2='3347.1' y2='1981.7' style="stroke-width:2.0;stroke:rgb(0,0,0);stroke-linecap:round;fill:none;" />
<line x1='3505.1' y1='1899.4' x2='3499.9' y2='1890.8' style="stroke-width:2.0;stroke:rgb(0,0,0);stroke-linecap:round;fill:none;" />
<path d="M2593.927,2725.203 A4725.000,4725.000 40.000 0,1 3632.852,1910.717 L3595.278,1845.808 A4800.000,4800.000 0.000 0,0 2539.863,2673.222 Z" style="stroke-width:2.0;stroke:rgb(0,0,0);stroke-linecap:round;fill:none;" />
<path d="M3693.708,1876.089 A4725.000,4725.000 40.000 0,1 4747.437,1444.047 L4727.555,1371.730 A4800.000,4800.000 0.000 0,0 3657.100,1810.630 Z" style="stroke-width:2.0;stroke:rgb(0,0,0);stroke-linecap:round;fill:rgb(0,0,0);" />
<text x="4283.4" y="1813.3" font-size="195.0px" font-family="CMUBright-Bold" style="text-anchor:middle;fill:rgb(0,0,0);" transform="rotate(-22.3,4283.4,1813.3)" >LG23</text>
<line x1='3657.1' y1='1810.6' x2='3649.8' y2='1797.5' style="stroke-width:2.0;stroke:rgb(0,0,0);stroke-linecap:round;fill:none;" />
<line x1='3813.3' y1='1727.0' x2='3808.8' y2='1718.1' style="stroke-width:2.0;stroke:rgb(0,0,0);stroke-linecap:round;fill:none;" />
<line x1='3972.6' y1='1649.2' x2='3966.2' y2='1635.6' style="stroke-width:2.0;stroke:rgb(0,0,0);stroke-linecap:round;fill:none;" />
<line x1='4134.5' y1='1577.3' x2='4130.7' y2='1568.1' style="stroke-width:2.0;stroke:rgb(0,0,0);stroke-linecap:round;fill:none;" />
<line x1='4299.1' y1='1511.5' x2='4293.8' y2='1497.4' style="stroke-width:2.0;stroke:rgb(0,0,0);stroke-linecap:round;fill:none;" />
<line x1='4465.9' y1='1451.7' x2='4462.7' y2='1442.3' style="stroke-width:2.0;stroke:rgb(0,0,0);stroke-linecap:round;fill:none;" />
<line x1='4634.9' y1='1398.2' x2='4630.6' y2='1383.8' style="stroke-width:2.0;stroke:rgb(0,0,0);stroke-linecap:round;fill:none;" />
<path d="M3693.708,1876.089 A4725.000,4725.000 40.000 0,1 4747.437,1444.047 L4727.555,1371.730 A4800.000,4800.000 0.000 0,0 3657.100,1810.630 Z" style="stroke-width:2.0;stroke:rgb(0,0,0);stroke-linecap:round;fill:none;" />
<path d="M4815.086,1425.986 A4725.000,4725.000 40.000 0,1 5929.984,1275.519 L5928.872,1200.527 A4800.000,4800.000 0.000 0,0 4796.278,1353.383 Z" style="stroke-width:2.0;stroke:rgb(0,0,0);stroke-linecap:round;fill:rgb(0,0,0);" />
<text x="5394.8" y="1515.7" font-size="195.0px" font-family="CMUBright-Bold" style="text-anchor:middle;fill:rgb(0,0,0);" transform="rotate(-7.7,5394.8,1515.7)" >LG24</text>
<line x1='4796.3' y1='1353.4' x2='4792.5' y2='1338.9' style="stroke-width:2.0;stroke:rgb(0,0,0);stroke-linecap:round;fill:none;" />
<line x1='4968.6' y1='1312.1' x2='4966.5' y2='1302.3' style="stroke-width:2.0;stroke:rgb(0,0,0);stroke-linecap:round;fill:none;" />
<line x1='5142.4' y1='1277.2' x2='5139.7' y2='1262.5' style="stroke-width:2.0;stroke:rgb(0,0,0);stroke-linecap:round;fill:none;" />
<line x1='5317.3' y1='1248.8' x2='5315.9' y2='1238.9' style="stroke-width:2.0;stroke:rgb(0,0,0);stroke-linecap:round;fill:none;" />
<line x1='5493.1' y1='1226.8' x2='5491.6' y2='1211.9' style="stroke-width:2.0;stroke:rgb(0,0,0);stroke-linecap:round;fill:none;" />
<line x1='5669.7' y1='1211.4' x2='5669.0' y2='1201.4' style="stroke-width:2.0;stroke:rgb(0,0,0);stroke-linecap:round;fill:none;" />
<line x1='5846.7' y1='1202.4' x2='5846.2' y2='1187.5' style="stroke-width:2.0;stroke:rgb(0,0,0);stroke-linecap:round;fill:none;" />
<path d="M4815.086,1425.986 A4725.000,4725.000 40.000 0,1 5929.984,1275.519 L5928.872,1200.527 A4800.000,4800.000 0.000 0,0 4796.278,1353.383 Z" style="stroke-width:2.0;stroke:rgb(0,0,0);stroke-linecap:round;fill:none;" />
</g>
<g id="plot0">
<g id="plot0-axis">
</g>
<path d="M9214.273,9629.263 A4848.000,4848.000 40.000 0,1 9149.180,9685.888 L9181.659,9723.902 A4898.000,4898.000 0.000 0,0 9247.424,9666.694 Z" style="stroke-width:15.0;stroke:rgb(90,43,130);stroke-linecap:round;fill:rgb(90,43,130);" />
<path d="M8978.601,9825.055 A4848.000,4848.000 40.000 0,1 8939.041,9855.534 L8969.353,9895.298 A4898.000,4898.000 0.000 0,0 9009.321,9864.504 Z" style="stroke-width:15.0;stroke:rgb(90,43,130);stroke-linecap:round;fill:rgb(90,43,130);" />
<path d="M9009.628,9864.899 A4898.500,4898.500 40.000 0,1 8969.656,9895.696 L8999.968,9935.460 A4948.500,4948.500 0.000 0,0 9040.348,9904.349 Z" style="stroke-width:15.0;stroke:rgb(90,43,130);stroke-linecap:round;fill:rgb(90,43,130);" />
<path d="M6834.046,10775.717 A4848.000,4848.000 40.000 0,1 6723.629,10793.690 L6731.092,10843.130 A4898.000,4898.000 0.000 0,0 6842.648,10824.971 Z" style="stroke-width:15.0;stroke:rgb(90,43,130);stroke-linecap:round;fill:rgb(90,43,130);" />
<path d="M6609.808,10809.495 A4848.000,4848.000 40.000 0,1 6570.899,10814.268 L6576.787,10863.920 A4898.000,4898.000 0.000 0,0 6616.097,10859.097 Z" style="stroke-width:15.0;stroke:rgb(90,43,130);stroke-linecap:round;fill:rgb(90,43,130);" />
<path d="M5439.831,10815.528 A4848.000,4848.000 40.000 0,1 5434.319,10814.884 L5428.485,10864.543 A4898.000,4898.000 0.000 0,0 5434.053,10865.194 Z" style="stroke-width:15.0;stroke:rgb(90,43,130);stroke-linecap:round;fill:rgb(90,43,130);" />
<path d="M5433.996,10865.690 A4898.500,4898.500 40.000 0,1 5428.427,10865.039 L5422.593,10914.698 A4948.500,4948.500 0.000 0,0 5428.218,10915.355 Z" style="stroke-width:15.0;stroke:rgb(90,43,130);stroke-linecap:round;fill:rgb(90,43,130);" />
<path d="M4202.803,10502.576 A4848.000,4848.000 40.000 0,1 4199.645,10501.314 L4181.077,10547.738 A4898.000,4898.000 0.000 0,0 4184.268,10549.013 Z" style="stroke-width:15.0;stroke:rgb(90,43,130);stroke-linecap:round;fill:rgb(90,43,130);" />
<path d="M1241.001,5075.320 A4848.000,4848.000 40.000 0,1 1250.455,5027.925 L1201.471,5017.899 A4898.000,4898.000 0.000 0,0 1191.919,5065.783 Z" style="stroke-width:15.0;stroke:rgb(90,43,130);stroke-linecap:round;fill:rgb(90,43,130);" />
<path d="M10846.189,6132.486 A4848.000,4848.000 40.000 0,1 10846.065,6136.959 L10896.045,6138.372 A4898.000,4898.000 0.000 0,0 10896.171,6133.852 Z" style="stroke-width:15.0;stroke:rgb(90,43,130);stroke-linecap:round;fill:rgb(90,43,130);" />
</g>
</svg>
